<svg width="97" height="96" viewBox="0 0 97 96" fill="none" xmlns="http://www.w3.org/2000/svg">
<rect x="0.5" width="96" height="96" rx="48" fill="#D0D1FB"/>
<rect x="12.5" y="12" width="72" height="72" rx="36" fill="#8585BE"/>
<path fill-rule="evenodd" clip-rule="evenodd" d="M32.9004 33.6C32.9004 31.6118 34.5122 30 36.5004 30H56.1974L64.1004 37.9029V62.4C64.1004 64.3882 62.4886 66 60.5004 66H36.5004C34.5122 66 32.9004 64.3882 32.9004 62.4V33.6ZM40.1014 39.593L52.1014 39.6008L52.0998 42.0008L40.0998 41.993L40.1014 39.593ZM56.9004 46.789H40.1004V49.189H56.9004V46.789ZM56.9018 54.0013L40.1018 53.983L40.0992 56.383L56.8992 56.4013L56.9018 54.0013Z" fill="white"/>
</svg>
