<svg xmlns="http://www.w3.org/2000/svg" width="22" height="22" viewBox="0 0 22 22" fill="none">
    <path d="M17.099 20.3334H20.4323V18.3334C20.4323 16.4924 18.9399 15 17.099 15M12.4323 5.66408C12.4323 7.87197 10.6416 9.66147 8.43229 9.66147C6.22296 9.66147 4.43229 7.87197 4.43229 5.66408C4.43229 3.45619 6.22296 1.66669 8.43229 1.66669C10.6416 1.66669 12.4323 3.45619 12.4323 5.66408ZM15.099 20.3212H1.76562C1.76562 19.3745 1.76562 18.4738 1.76562 17.6582C1.76562 15.4491 3.55649 13.6589 5.76563 13.6589H11.099C13.3081 13.6589 15.099 15.4491 15.099 17.6582C15.099 18.4738 15.099 19.3745 15.099 20.3212ZM16.4323 12.3334C14.9595 12.3334 13.7656 11.1394 13.7656 9.66669C13.7656 8.19393 14.9595 7.00002 16.4323 7.00002C17.9051 7.00002 19.099 8.19393 19.099 9.66669C19.099 11.1394 17.9051 12.3334 16.4323 12.3334Z" />
</svg>
