<svg width="17" height="16" viewBox="0 0 17 16" fill="none" xmlns="http://www.w3.org/2000/svg">
<path d="M0.917969 7.99996C0.917969 3.7609 4.23195 0.291902 8.42298 0.0174561V4.30443C6.60447 4.56322 5.20655 6.11917 5.20655 7.99996C5.20655 10.0618 6.8866 11.7333 8.95905 11.7333C9.80195 11.7333 10.5799 11.4568 11.2064 10.99L14.2533 14.0214C12.8389 15.2534 10.9866 16 8.95905 16C4.51809 16 0.917969 12.4182 0.917969 7.99996Z" fill="white"/>
<path d="M15.0115 13.2672C16.2497 11.86 17.0001 10.0172 17.0001 7.99996C17.0001 6.89754 16.776 5.8472 16.3706 4.89159L12.4491 6.62557C12.6185 7.05093 12.7116 7.51463 12.7116 7.99996C12.7116 8.83853 12.4337 9.61253 11.9645 10.2358L15.0115 13.2672Z" fill="white"/>
<path d="M9.49513 4.30443V0.0174561C12.2201 0.195897 14.5742 1.7248 15.8879 3.93778L11.9118 5.69586C11.3292 4.95778 10.473 4.44359 9.49513 4.30443Z" fill="white"/>
</svg>
