<svg width="16" height="16" viewBox="0 0 16 16" fill="none" xmlns="http://www.w3.org/2000/svg">
<path fill-rule="evenodd" clip-rule="evenodd" d="M12.9845 2.5H14.4922C15.3249 2.5 15.9999 3.17157 15.9999 4V14C15.9999 14.8284 15.3249 15.5 14.4922 15.5H2.43056C1.59787 15.5 0.922852 14.8284 0.922852 14V4C0.922852 3.17157 1.59787 2.5 2.43055 2.5H3.93826V0.5H4.94339V2.5H11.9793V0.5H12.9845V2.5ZM6.95366 8.5H3.93826V7.5H6.95366V8.5ZM12.9845 7.5H9.96907V8.5H12.9845V7.5ZM6.95366 11.5H3.93826V10.5H6.95366V11.5ZM9.96907 11.5H12.9845V10.5H9.96907V11.5Z" fill="#000"/>
</svg>
