<svg width="21" height="20" viewBox="0 0 21 20" fill="none" xmlns="http://www.w3.org/2000/svg">
<path d="M0.25 6V0H1.58333V6C1.58333 7.10457 2.47876 8 3.58333 8C4.6879 8 5.58333 7.10457 5.58333 6V2C5.58333 1.63181 5.28486 1.33333 4.91667 1.33333C4.54848 1.33333 4.25 1.63181 4.25 2V6.66667H2.91667V2C2.91667 0.895431 3.8121 0 4.91667 0C6.02124 0 6.91667 0.895431 6.91667 2V6C6.91667 7.84095 5.42428 9.33333 3.58333 9.33333C1.74238 9.33333 0.25 7.84095 0.25 6Z" fill="#000"/>
<path fill-rule="evenodd" clip-rule="evenodd" d="M16.9167 0H8.25V6C8.25 8.57733 6.16066 10.6667 3.58333 10.6667H1.58333V18C1.58333 19.1046 2.47876 20 3.58333 20H16.9167C18.0212 20 18.9167 19.1046 18.9167 18V2C18.9167 0.895431 18.0212 0 16.9167 0ZM14.9167 5.33333H9.58333V6.66667H14.9167V5.33333ZM14.9167 9.33333H9.58333V10.6667H14.9167V9.33333ZM5.58333 13.3333H14.9167V14.6667H5.58333V13.3333Z" fill="#000"/>
</svg>
