<svg width="16" height="16" viewBox="0 0 16 16" fill="none" xmlns="http://www.w3.org/2000/svg">
<path fill-rule="evenodd" clip-rule="evenodd" d="M7.80589 1.03987C8.4717 0.374051 9.37474 0 10.3163 0C12.2771 0 13.8667 1.58954 13.8667 3.55034C13.8667 4.49194 13.4926 5.39499 12.8268 6.0608L6.68562 12.202C6.3027 12.5849 5.78335 12.8 5.24183 12.8C4.11416 12.8 3.2 11.8859 3.2 10.7582C3.2 10.2167 3.41512 9.69734 3.79804 9.31442L9.75621 3.35622L10.5105 4.11047L4.55229 10.0687C4.36941 10.2515 4.26667 10.4996 4.26667 10.7582C4.26667 11.2968 4.70326 11.7334 5.24183 11.7334C5.50046 11.7334 5.74849 11.6306 5.93137 11.4478L12.0726 5.30655C12.5383 4.84078 12.8 4.20904 12.8 3.55034C12.8 2.17865 11.688 1.06667 10.3163 1.06667C9.65764 1.06667 9.02591 1.32834 8.56014 1.79412L2.23594 8.11834C1.48727 8.86701 1.06667 9.88244 1.06667 10.9412C1.06667 13.146 2.85401 14.9334 5.05882 14.9334C6.1176 14.9334 7.13302 14.5128 7.88169 13.7641L14.0229 7.62291L14.7771 8.37716L8.63594 14.5184C7.68723 15.4671 6.4005 16.0001 5.05882 16.0001C2.26491 16.0001 0 13.7351 0 10.9412C0 9.59954 0.532981 8.3128 1.48169 7.36409L7.80589 1.03987Z" fill="#0B0C7D"/>
</svg>
