<svg width="17" height="16" viewBox="0 0 17 16" fill="none" xmlns="http://www.w3.org/2000/svg">
<path fill-rule="evenodd" clip-rule="evenodd" d="M12.7116 3.20001V1.60001C12.7116 0.716347 11.9916 0 11.1034 0H6.81479C5.92659 0 5.20656 0.716347 5.20656 1.60001V3.20001H0.917969V4.26668H1.99012V14.4001C1.99012 15.2837 2.71014 16.0001 3.59834 16.0001H14.3198C15.208 16.0001 15.9281 15.2837 15.9281 14.4001V4.26668H17.0002V3.20001H12.7116ZM6.27871 1.60001C6.27871 1.30545 6.51872 1.06667 6.81479 1.06667H11.1034C11.3994 1.06667 11.6395 1.30545 11.6395 1.60001V3.20001H6.27871V1.60001ZM8.42301 7.4667V12.8H9.49516V7.4667H8.42301ZM5.20656 12.8V9.60004H6.27871V12.8H5.20656ZM11.6395 9.60004V12.8H12.7116V9.60004H11.6395Z" fill="#FF4D4D"/>
</svg>
