<svg width="16" height="16" viewBox="0 0 16 16" fill="none" xmlns="http://www.w3.org/2000/svg">
<g clip-path="url(#clip0_14821_25372)">
<path d="M16 6.7447C16 6.17491 15.5393 5.71425 14.97 5.71425C14.4012 5.71425 13.94 6.17491 13.94 6.7447C13.94 7.01527 14.0456 7.26069 14.2166 7.44475L13.7881 8.17095C13.7167 8.15536 13.6438 8.14631 13.5679 8.14631C13.1514 8.14631 12.7939 8.39374 12.6319 8.7503H11.6115C11.4601 8.42039 11.1418 8.18352 10.7636 8.15133L10.3195 7.39245C10.4628 7.21442 10.5493 6.98962 10.5493 6.7447C10.5493 6.50934 10.4699 6.2941 10.3376 6.1211L10.7912 5.34863C10.8033 5.34913 10.8154 5.35014 10.8279 5.35014C11.3967 5.35014 11.8574 4.88948 11.8574 4.32069C11.8574 3.7519 11.3967 3.29073 10.8279 3.29073C10.2591 3.29073 9.79745 3.7519 9.79745 4.32069C9.79745 4.54197 9.86836 4.74715 9.98806 4.91563L9.52537 5.71475C9.52335 5.71475 9.52084 5.71475 9.51833 5.71475C9.09788 5.71475 8.73729 5.9667 8.57736 6.32679L7.4317 6.33332C7.27328 5.96972 6.91167 5.71626 6.49022 5.71525L6.0386 4.93524C6.21663 4.74967 6.32677 4.49872 6.32677 4.22111C6.32677 3.98273 6.2458 3.76548 6.11001 3.59047L6.53599 2.85622C7.08217 2.83108 7.5177 2.38148 7.5177 1.82828C7.5177 1.25949 7.05652 0.798828 6.48771 0.798828C5.9189 0.798828 5.45772 1.25949 5.45772 1.82828C5.45772 2.08527 5.55227 2.31962 5.70768 2.49966L5.2993 3.19116C5.2988 3.19116 5.29779 3.19116 5.29679 3.19116C4.85924 3.19116 4.48658 3.46474 4.33721 3.84997H3.15283C2.98133 3.51855 2.63632 3.29174 2.23801 3.29174C1.6692 3.29174 1.20752 3.75291 1.20752 4.32169C1.20752 4.89048 1.6692 5.35115 2.23801 5.35115C2.63331 5.35115 2.9763 5.12886 3.14931 4.80096H4.44685C4.60627 5.03532 4.86075 5.19927 5.15446 5.24051L5.67247 6.11858C5.53869 6.29259 5.45873 6.50884 5.45873 6.74571C5.45873 6.99314 5.54674 7.22045 5.69259 7.39798L5.24901 8.14983C4.85371 8.16793 4.51675 8.40933 4.36085 8.7513H3.17445C3.01201 8.39474 2.65443 8.14731 2.23801 8.14731C1.6692 8.14731 1.20752 8.60848 1.20752 9.17727C1.20752 9.4257 1.29654 9.65452 1.44389 9.83356L0.994279 10.6186C0.44207 10.6372 0 11.0898 0 11.647C0 12.2158 0.461181 12.6765 1.02999 12.6765C1.59879 12.6765 2.05997 12.2158 2.05997 11.647C2.05997 11.3986 1.97247 11.1713 1.82611 10.9938L2.27422 10.2067C2.63582 10.1936 2.94914 9.99499 3.12315 9.7023H4.41265C4.57358 9.97337 4.85472 10.165 5.18313 10.2012L5.66392 11.0315C5.53568 11.203 5.45873 11.4152 5.45873 11.647C5.45873 11.904 5.55328 12.1389 5.70918 12.3189L5.23141 13.1447C4.69378 13.1784 4.26831 13.6245 4.26831 14.1706C4.26831 14.7399 4.72899 15.2011 5.29779 15.2011C5.8666 15.2011 6.32778 14.7399 6.32778 14.1706C6.32778 13.9046 6.22619 13.6627 6.06023 13.4801L6.31269 13.0441C6.31269 13.0441 6.3132 13.0451 6.3137 13.0451L6.52794 12.676C6.91117 12.6619 7.24008 12.4381 7.40504 12.1183H8.60401C8.76947 12.4416 9.1004 12.6634 9.48513 12.676L9.93575 13.4555C9.75621 13.6406 9.64456 13.893 9.64456 14.1716C9.64456 14.7409 10.1057 15.2021 10.675 15.2021C11.2444 15.2021 11.705 14.7409 11.705 14.1716C11.705 13.6386 11.2987 13.1995 10.7797 13.1477L10.3014 12.3179C10.4568 12.1384 10.5498 11.905 10.5498 11.6491C10.5498 11.4162 10.4724 11.204 10.3426 11.031L10.8279 10.1977C11.1392 10.1514 11.4053 9.96583 11.5607 9.70482H12.6837C12.8628 10.0071 13.1922 10.2107 13.5694 10.2107C14.1382 10.2107 14.5989 9.74957 14.5989 9.18028C14.5989 9.02891 14.5662 8.88558 14.5068 8.75683L15.0716 7.77264C15.5926 7.71833 16 7.27879 16 6.7447ZM9.51933 10.6513C9.09537 10.6513 8.73175 10.8711 8.57333 11.2367H7.43371C7.27579 10.8706 6.91167 10.6156 6.48821 10.6156C6.47614 10.6156 6.46407 10.6166 6.4515 10.6176L6.0391 9.89089C6.21714 9.70632 6.32728 9.45387 6.32728 9.17676C6.32728 8.91475 6.2287 8.67587 6.06727 8.49482L6.48419 7.77415C6.4857 7.77415 6.4867 7.77466 6.48821 7.77466C6.88753 7.77466 7.23304 7.54684 7.40404 7.21442H8.60301C8.76796 7.53628 9.09688 7.75856 9.4796 7.77214L9.89652 8.50236C9.73961 8.68291 9.64406 8.91877 9.64406 9.17727C9.64406 9.45839 9.75721 9.73097 9.93877 9.91704L9.52084 10.6528C9.52084 10.6513 9.51983 10.6513 9.51933 10.6513Z" fill="#0000CC"/>
</g>
<defs>
<clipPath id="clip0_14821_25372">
<rect width="16" height="16" fill="white"/>
</clipPath>
</defs>
</svg>
