<svg width="37" height="36" viewBox="0 0 37 36" fill="none" xmlns="http://www.w3.org/2000/svg">
<path fill-rule="evenodd" clip-rule="evenodd" d="M12.5 6V7.2H4.1C2.11178 7.2 0.5 8.81177 0.5 10.8V26.4H36.5V10.8C36.5 8.81177 34.8882 7.2 32.9 7.2H24.5V6C24.5 2.68629 21.8137 0 18.5 0C15.1863 0 12.5 2.68629 12.5 6ZM18.5 2.4C16.5118 2.4 14.9 4.01177 14.9 6V7.2H22.1V6C22.1 4.01177 20.4882 2.4 18.5 2.4Z" fill="white"/>
<path d="M36.5 28.8H0.5V32.4C0.5 34.3882 2.11178 36 4.1 36H32.9C34.8882 36 36.5 34.3882 36.5 32.4V28.8Z" fill="white"/>
</svg>
