<svg width="21" height="20" viewBox="0 0 21 20" fill="none" xmlns="http://www.w3.org/2000/svg">
<path d="M3.16667 1.33203H9.83333V2.66537L3.16667 2.66536V1.33203Z" fill="#0B0C7D"/>
<path d="M11.1667 11.332C11.1667 10.2275 12.0621 9.33203 13.1667 9.33203C14.2712 9.33203 15.1667 10.2275 15.1667 11.332C15.1667 12.4366 14.2712 13.332 13.1667 13.332C12.0621 13.332 11.1667 12.4366 11.1667 11.332Z" fill="#0B0C7D"/>
<path fill-rule="evenodd" clip-rule="evenodd" d="M0.5 16.6654C0.5 17.7699 1.39543 18.6654 2.5 18.6654L18.5 18.6654C19.6046 18.6654 20.5 17.7699 20.5 16.6654L20.5 5.9987C20.5 4.89413 19.6046 3.9987 18.5 3.9987H2.5C1.39543 3.9987 0.5 4.89413 0.5 5.9987V16.6654ZM13.1667 7.9987C11.3257 7.9987 9.83333 9.49108 9.83333 11.332C9.83333 13.173 11.3257 14.6654 13.1667 14.6654C15.0076 14.6654 16.5 13.173 16.5 11.332C16.5 9.49108 15.0076 7.9987 13.1667 7.9987Z" fill="#0B0C7D"/>
</svg>
