<svg width="16" height="16" viewBox="0 0 16 16" fill="none" xmlns="http://www.w3.org/2000/svg">
<path fill-rule="evenodd" clip-rule="evenodd" d="M1.06667 0V3.73333C1.06667 3.95372 1.30495 4.26667 1.77778 4.26667H14.2222C14.6951 4.26667 14.9333 3.95372 14.9333 3.73333V0H16V3.73333C16 4.69116 15.124 5.33333 14.2222 5.33333H1.77778C0.876031 5.33333 0 4.69116 0 3.73333V0H1.06667ZM0.000156339 11.2001C0.000156339 10.3164 0.7165 9.60005 1.60016 9.60005H14.4002C15.2838 9.60005 16.0002 10.3164 16.0002 11.2V16H14.9335V11.2C14.9335 10.9055 14.6947 10.6667 14.4002 10.6667H1.60016C1.30561 10.6667 1.06682 10.9055 1.06682 11.2001V16H0.000156339V11.2001ZM12.8002 13.8667H3.20016V12.8H12.8002V13.8667Z" fill="#0B0C7D"/>
</svg>
