<svg width="24" height="24" viewBox="0 0 24 24" fill="none" xmlns="http://www.w3.org/2000/svg">
<g clip-path="url(#clip0_11782_8577)">
<path d="M12.0006 0C5.38312 0 0.000976562 5.38291 0.000976562 11.9996C0.000976562 18.6171 5.38312 24.0008 12.0006 24.0008C18.6165 24.0008 23.9994 18.6179 23.9994 11.9996C23.9994 5.38291 18.6165 0 12.0006 0ZM12.0006 22.0896C6.43629 22.0896 1.9106 17.5639 1.9106 11.9989C1.9106 6.43607 6.43629 1.90886 12.0006 1.90886C17.5641 1.90886 22.0898 6.43607 22.0898 11.9989C22.0898 17.5639 17.5641 22.0896 12.0006 22.0896Z" fill="#0000CC"/>
<path d="M14.7281 9.46778V5.6118C14.7281 4.94745 14.1901 4.41016 13.5265 4.41016H10.9272C10.2637 4.41016 9.72636 4.94822 9.72636 5.6118V9.46778H5.86885C5.20527 9.46778 4.66797 10.0058 4.66797 10.6694V13.3238C4.66797 13.9873 5.20527 14.5254 5.86885 14.5254H9.72559V18.3806C9.72559 19.0442 10.2629 19.5823 10.9265 19.5823H13.5265C14.1893 19.5823 14.7273 19.0442 14.7273 18.3806V14.5254H18.5833C19.2469 14.5254 19.785 13.9873 19.785 13.3238V10.6694C19.785 10.0051 19.2469 9.46778 18.5833 9.46778H14.7281Z" fill="#FF4D4D"/>
</g>
<defs>
<clipPath id="clip0_11782_8577">
<rect width="24" height="24" fill="white"/>
</clipPath>
</defs>
</svg>
