<svg xmlns="http://www.w3.org/2000/svg" width="17" height="16" viewBox="0 0 17 16" fill="none">
  <path d="M4.27986 6.26408C4.81938 6.26408 5.25675 5.82672 5.25675 5.28719C5.25675 4.74767 4.81938 4.31031 4.27986 4.31031C3.74034 4.31031 3.30297 4.74767 3.30297 5.28719C3.30297 5.82672 3.74034 6.26408 4.27986 6.26408Z" fill="#FF4D4D"/>
  <path d="M9.83698 4.74189H6.50558C6.19898 4.74189 5.95 4.98624 5.95 5.29284C5.95 5.59944 6.19847 5.84379 6.50558 5.84379H9.83801C10.1446 5.84379 10.3926 5.59944 10.3926 5.29284C10.3926 4.98624 10.1441 4.74189 9.83698 4.74189Z" fill="#FF8B00"/>
  <path d="M4.27986 9.03522C4.81938 9.03522 5.25675 8.59785 5.25675 8.05833C5.25675 7.51881 4.81938 7.08144 4.27986 7.08144C3.74034 7.08144 3.30297 7.51881 3.30297 8.05833C3.30297 8.59785 3.74034 9.03522 4.27986 9.03522Z" fill="#FF4D4D"/>
  <path d="M9.83698 7.49566H6.50558C6.19898 7.49566 5.95 7.75185 5.95 8.05844C5.95 8.36504 6.19847 8.62019 6.50558 8.62019H9.83801C10.1446 8.62019 10.3926 8.36504 10.3926 8.05844C10.3926 7.75185 10.1441 7.49566 9.83698 7.49566Z" fill="#FF8B00"/>
  <path d="M4.27989 11.9963C4.81912 11.9963 5.25626 11.5592 5.25626 11.0199C5.25626 10.4807 4.81912 10.0435 4.27989 10.0435C3.74065 10.0435 3.30351 10.4807 3.30351 11.0199C3.30351 11.5592 3.74065 11.9963 4.27989 11.9963Z" fill="#FF4D4D"/>
  <path d="M9.83698 10.4556H6.50558C6.19898 10.4556 5.95 10.7118 5.95 11.0184C5.95 11.325 6.19847 11.5801 6.50558 11.5801H9.83801C10.1446 11.5801 10.3926 11.3245 10.3926 11.0184C10.3926 10.7118 10.1441 10.4556 9.83698 10.4556Z" fill="#FF8B00"/>
  <path d="M12.5885 0.444445H11.2552V0H12.5885V0.444445Z" fill="#0000CC"/>
  <path fill-rule="evenodd" clip-rule="evenodd" d="M11.9219 0.888889C10.3264 0.888889 9.03299 2.18229 9.03299 3.77778C9.03299 5.37327 10.3264 6.66667 11.9219 6.66667C13.5174 6.66667 14.8108 5.37327 14.8108 3.77778C14.8108 2.18229 13.5174 0.888889 11.9219 0.888889ZM12.1441 3.55556V2.22222H11.6997V4H13.033V3.55556H12.1441Z" fill="#0000CC"/>
  <path d="M7.20639 1.66667H2.20605C1.58514 1.66667 1.08203 2.17029 1.08203 2.7912V13.875C1.08203 14.4959 1.58514 15 2.20605 15H11.6375C12.2584 15 12.762 14.4964 12.762 13.875V8.26306C12.4889 8.30927 12.2082 8.33334 11.9219 8.33334C11.8264 8.33334 11.7316 8.33066 11.6375 8.32539L11.6379 13.2062C11.6379 13.5879 11.3283 13.8976 10.9466 13.8976H2.89789C2.51619 13.8976 2.20651 13.5879 2.20651 13.2062V3.48259C2.20651 3.10038 2.51619 2.79121 2.89789 2.79121L6.95093 2.7912C6.99298 2.40116 7.07989 2.02456 7.20639 1.66667Z" fill="#0B0C7D"/>
</svg>