<svg xmlns="http://www.w3.org/2000/svg" width="17" height="16" viewBox="0 0 17 16" fill="none">
  <path fill-rule="evenodd" clip-rule="evenodd" d="M3.59428 7.11C4.73555 8.3716 6.47764 9.60011 8.95859 9.60011C11.4395 9.60011 13.1816 8.3716 14.3229 7.11C14.8939 6.47878 15.3077 5.84576 15.5784 5.37051C15.7135 5.13341 15.8121 4.93706 15.8761 4.80186C15.9081 4.7343 15.9315 4.68214 15.9464 4.64795C15.9538 4.63086 15.9591 4.61827 15.9624 4.61051L15.9657 4.60253L15.966 4.60168C15.966 4.60185 15.9659 4.60204 16.4636 4.80011C16.9614 4.99819 16.9613 4.99842 16.9612 4.99867L16.9609 4.99927L16.9603 5.00084L16.9584 5.00543L16.9522 5.02032C16.947 5.03274 16.9397 5.0501 16.9301 5.07207C16.911 5.116 16.883 5.17843 16.8459 5.25671C16.7718 5.41317 16.661 5.63349 16.5112 5.89639C16.2123 6.42114 15.755 7.12145 15.1198 7.82356C14.9238 8.04031 14.7101 8.25784 14.4784 8.47075L16.3066 10.2897L15.5485 11.0439L13.6456 9.15075C12.5651 9.92968 11.1914 10.5421 9.49467 10.6499L9.49468 12.8001L8.42254 12.8001L8.42252 10.6499C6.72582 10.5421 5.35213 9.92969 4.2716 9.15075L2.36873 11.0439L1.61061 10.2897L3.43884 8.47076C3.2071 8.25784 2.99344 8.04031 2.79736 7.82356C2.16221 7.12144 1.70489 6.42113 1.406 5.89639C1.25626 5.63348 1.14545 5.41317 1.07131 5.2567C1.03422 5.17843 1.00625 5.116 0.987109 5.07207C0.97754 5.05009 0.970174 5.03273 0.96498 5.02032L0.95881 5.00543L0.956936 5.00084L0.9563 4.99927L0.956058 4.99867C0.955957 4.99842 0.955865 4.99819 1.4536 4.80011C1.95133 4.60204 1.95125 4.60185 1.95118 4.60168L1.95109 4.60145L1.95153 4.60253L1.95484 4.61051C1.95809 4.61828 1.96342 4.63086 1.97086 4.64795C1.98575 4.68214 2.00908 4.7343 2.04109 4.80186C2.10516 4.93706 2.20375 5.13341 2.3388 5.37051C2.60949 5.84576 3.02327 6.47879 3.59428 7.11ZM1.95104 4.60133C1.95103 4.60129 1.95104 4.60133 1.95109 4.60145L1.95104 4.60133Z" fill="#A6AFC2"/>
</svg>