<svg width="17" height="16" viewBox="0 0 17 16" fill="none" xmlns="http://www.w3.org/2000/svg">
<path fill-rule="evenodd" clip-rule="evenodd" d="M11.8322 1.85076C10.9433 1.33631 9.93511 1.06597 8.9092 1.06667C7.8833 1.06737 6.87547 1.33908 5.98722 1.85473C5.09895 2.37041 4.36147 3.11194 3.8495 4.00501C3.33751 4.89811 3.06925 5.911 3.07206 6.94158L3.07206 6.94302L3.07206 7.74205C3.07206 7.74791 3.07196 7.75378 3.07177 7.75964C3.01095 9.59367 3.24592 11.4255 3.76758 13.1843L3.91929 13.6959L2.89098 13.9977L2.73927 13.4862C2.186 11.6208 1.93637 9.67825 1.99991 7.73332V6.94373C1.99673 5.72746 2.31335 4.53159 2.91818 3.47655C3.52315 2.42128 4.3952 1.54397 5.44687 0.933443C6.49858 0.322895 7.69256 0.000828496 8.90847 1.5963e-06C10.1244 -0.000825303 11.3188 0.319617 12.3713 0.928736L12.8347 1.1969L12.2956 2.11892L11.8322 1.85076ZM14.5985 3.01543L14.8736 3.47316C15.6495 4.76407 15.9838 6.2728 15.8265 7.77039V8.54167C15.8256 9.29012 16.0213 10.0254 16.3936 10.6736L16.6595 11.1367L15.7286 11.6658L15.4627 11.2028C14.9975 10.3927 14.7533 9.47459 14.7543 8.54049V7.74205C14.7543 7.72278 14.7554 7.70353 14.7575 7.68438C14.8971 6.40751 14.6144 5.12027 13.9534 4.02061L13.6783 3.56288L14.5985 3.01543ZM8.91319 4.28022C8.21099 4.28022 7.53674 4.55979 7.03898 5.05872C6.54109 5.55779 6.26066 6.23552 6.26066 6.94302V7.47635H5.18851V6.94302C5.18851 5.95518 5.57997 5.00701 6.27803 4.3073C6.97623 3.60746 7.92404 3.21355 8.91319 3.21355C9.90233 3.21355 10.8501 3.60746 11.5483 4.3073C12.2464 5.00701 12.6379 5.95518 12.6379 6.94302V7.74205C12.6379 9.3565 13.1603 10.927 14.1261 12.2178L14.4462 12.6456L13.5862 13.2825L13.2661 12.8547C12.1621 11.3793 11.5657 9.58532 11.5657 7.74205V6.94302C11.5657 6.23552 11.2853 5.55779 10.7874 5.05872C10.2896 4.55979 9.61538 4.28022 8.91319 4.28022ZM9.44926 8.54167C9.44683 10.7184 10.1094 12.8433 11.3475 14.6307L11.6517 15.0699L10.7688 15.6751L10.4646 15.236C9.10286 13.2699 8.37454 10.9336 8.37711 8.54096M6.19519 9.54781L6.25707 10.0776C6.44496 11.686 6.91272 13.2487 7.63901 14.695L7.8786 15.1721L6.91951 15.6488L6.67991 15.1717C5.89787 13.6145 5.39434 11.932 5.1921 10.2007L5.13021 9.67095L6.19519 9.54781Z" fill="white"/>
</svg>
