<svg width="16" height="16" viewBox="0 0 16 16" fill="none" xmlns="http://www.w3.org/2000/svg">
<path d="M9.58803 13.1779C8.83713 14.1017 7.68767 14.6918 6.39094 14.6918C4.12821 14.6918 2.31731 12.8422 2.31731 10.592C2.31731 9.25958 3.03956 8.07644 4.00607 7.32856V5.92578C2.37059 6.81339 1.10352 8.55291 1.10352 10.5729C1.10352 13.489 3.47381 15.9 6.40653 15.9C8.29985 15.9 9.94237 14.8611 10.8777 13.4227C10.8089 13.2659 10.7315 13.1141 10.6561 12.9608C10.3012 13.0432 9.94589 13.1151 9.58803 13.1779Z" fill="#0000CC"/>
<path d="M6.57837 3.76453C7.62374 3.76453 8.47119 2.92181 8.47119 1.88226C8.47119 0.842718 7.62374 0 6.57837 0C5.53299 0 4.68555 0.842718 4.68555 1.88226C4.68555 2.92181 5.53299 3.76453 6.57837 3.76453Z" fill="#FF8B00"/>
<path d="M14.7965 14.3096L12.8197 9.73633C12.588 9.20105 12.006 8.90753 11.4365 9.0367L7.45538 9.95346L7.45086 5.67275C7.44985 5.00428 6.90804 4.45142 6.24008 4.45142C6.24008 4.45142 6.23907 4.45142 6.23857 4.45142C5.5701 4.45142 5.0293 5.0068 5.0293 5.67476L5.03533 11.4693C5.03533 11.8372 5.2042 12.1896 5.4927 12.4187C5.7812 12.6484 6.15916 12.7364 6.51701 12.653L10.9983 11.6216L12.5739 15.269C12.7725 15.7264 13.2178 15.9998 13.6862 15.9998C13.846 15.9998 14.0099 15.9687 14.1662 15.9003C14.7794 15.6354 15.0608 14.9227 14.7965 14.3096Z" fill="#FF8B00"/>
</svg>
