<svg width="17" height="16" viewBox="0 0 17 16" fill="none" xmlns="http://www.w3.org/2000/svg">
<rect x="0.5" width="16" height="16" rx="8" fill="#000"/>
<g clip-path="url(#clip0_11238_2573)">
<path d="M7.46541 6.34209C7.48624 6.28401 7.54465 6.24824 7.60586 6.25625C7.66705 6.26421 7.71441 6.31372 7.71966 6.3752L7.92938 8.82541L8.32209 7.40988C8.33816 7.352 8.39119 7.31225 8.45147 7.31376C8.51148 7.31508 8.56296 7.35699 8.57646 7.41549L8.79515 8.36422L9.16854 6.79541C9.18311 6.73403 9.23943 6.692 9.30237 6.69469C9.36538 6.69768 9.41739 6.74511 9.42616 6.80757L9.70482 8.79419L9.82974 8.39043C9.84676 8.33547 9.89759 8.29802 9.95511 8.29802H12.9103V7.62155C12.9103 6.99708 12.404 6.49067 11.7792 6.49067L9.98376 6.49067V4.69518C9.98376 4.07043 9.4775 3.56421 8.85279 3.56421H8.19955H8.0965C7.47193 3.56421 6.96538 4.07045 6.96538 4.69518V6.49064H5.16984C4.54559 6.49064 4.03906 6.99705 4.03906 7.62152L4.03906 8.31243H6.75839L7.46541 6.34209Z" fill="white"/>
<path d="M9.78193 9.43342C9.76373 9.49211 9.70712 9.53043 9.64603 9.52544C9.58475 9.52046 9.53512 9.47372 9.52661 9.41282L9.26294 7.53306L8.92086 8.97034C8.90679 9.02946 8.85394 9.07121 8.79321 9.07121C8.79307 9.07121 8.7929 9.07121 8.79273 9.07121C8.73178 9.07097 8.67901 9.02884 8.66532 8.96943L8.43694 7.97859L7.98743 9.59883C7.97151 9.65607 7.91943 9.69496 7.86105 9.69496C7.857 9.69496 7.85292 9.69476 7.84882 9.69443C7.78555 9.68853 7.7356 9.63823 7.73021 9.57493L7.50955 6.99683L6.97442 8.48834C6.95572 8.54051 6.9063 8.57525 6.85089 8.57525H4.05664C4.14991 9.10588 4.6129 9.50916 5.16999 9.50916H6.96553V11.3047C6.96553 11.9294 7.47208 12.4359 8.09664 12.4359H8.19969H8.85294C9.47764 12.4359 9.98391 11.9294 9.98391 11.3047V9.50916H11.7793C12.342 9.50916 12.8083 9.09856 12.8956 8.56082H10.052L9.78193 9.43342Z" fill="white"/>
<path d="M13.3688 8.2985H12.9107H9.95547C9.89795 8.2985 9.8471 8.33598 9.8301 8.39091L9.70518 8.79467L9.42653 6.80805C9.41775 6.74559 9.36575 6.69816 9.30274 6.69517C9.2398 6.69248 9.18348 6.73451 9.1689 6.79589L8.79551 8.3647L8.57682 7.41597C8.56332 7.35747 8.51184 7.31556 8.45183 7.31424C8.39155 7.31273 8.33852 7.35251 8.32245 7.41036L7.92974 8.82589L7.72002 6.37568C7.71477 6.3142 7.66741 6.26467 7.60623 6.25673C7.54499 6.24872 7.48661 6.2845 7.46577 6.34257L6.7588 8.31294H4.03945H3.63125C3.55877 8.31294 3.5 8.3717 3.5 8.44421C3.5 8.51667 3.55874 8.57543 3.63125 8.57543H4.05688H6.85108C6.90652 8.57543 6.95591 8.54069 6.97461 8.48852L7.50974 6.99701L7.7304 9.57511C7.73582 9.63841 7.78576 9.68871 7.84901 9.69461C7.85311 9.69495 7.85719 9.69514 7.86124 9.69514C7.91965 9.69514 7.9717 9.65625 7.98762 9.59902L8.43713 7.97875L8.66551 8.96958C8.6792 9.02902 8.73197 9.07112 8.79292 9.07136C8.79309 9.07136 8.79326 9.07136 8.7934 9.07136C8.85413 9.07136 8.90698 9.02964 8.92105 8.97049L9.26313 7.53324L9.5268 9.41301C9.53531 9.47391 9.58496 9.52066 9.64622 9.52562C9.70732 9.53061 9.76392 9.4923 9.78212 9.4336L10.0522 8.56095H12.8958H13.3688C13.4413 8.56095 13.5 8.50221 13.5 8.42973C13.5 8.35725 13.4413 8.2985 13.3688 8.2985Z" fill="#000"/>
</g>
<defs>
<clipPath id="clip0_11238_2573">
<rect width="10" height="10" fill="white" transform="translate(3.5 3)"/>
</clipPath>
</defs>
</svg>
