<svg xmlns="http://www.w3.org/2000/svg" width="16" height="16" viewBox="0 0 16 16" fill="none">
    <path fill-rule="evenodd" clip-rule="evenodd" d="M0 8C0 3.58172 3.58172 0 8 0C12.4183 0 16 3.58172 16 8C16 12.4183 12.4183 16 8 16C3.58172 16 0 12.4183 0 8ZM4.42278 5.48957C5.22016 4.69219 6.51297 4.69219 7.31036 5.48957L7.9999 6.17912L8.68944 5.48957C9.48683 4.69219 10.7796 4.69219 11.577 5.48957C12.3744 6.28696 12.3744 7.57977 11.577 8.37715L7.9999 11.9543L4.42278 8.37716C3.62539 7.57977 3.62539 6.28696 4.42278 5.48957Z" fill="#000"/>
</svg>
