<svg width="16" height="16" viewBox="0 0 16 16" fill="none" xmlns="http://www.w3.org/2000/svg">
<path d="M15.9792 6.16876C15.9929 6.0315 16 5.8917 16 5.75089C16 3.44092 14.1278 1.56763 11.8174 1.56763C10.117 1.56763 8.65347 2.58383 7.99975 4.04129C7.34602 2.58332 5.88251 1.56763 4.18211 1.56763C1.87222 1.56763 0 3.44092 0 5.75089C0 5.8917 0.00711676 6.0315 0.0203336 6.16876C0.0203336 6.16876 0.102176 10.2875 8.05109 14.4311C15.999 10.2875 15.9792 6.16876 15.9792 6.16876ZM4.30106 2.48928C4.68079 2.48928 4.98783 2.79632 4.98783 3.17556C4.98783 3.55479 4.68079 3.86184 4.30106 3.86184C3.92133 3.86184 3.61582 3.5553 3.61582 3.17556C3.61531 2.79683 3.92184 2.48928 4.30106 2.48928ZM2.15587 7.62418C2.09182 7.64197 2.02675 7.65062 1.96372 7.65062C1.65007 7.65062 1.36235 7.4427 1.27441 7.1265C1.16664 6.74269 1.11581 6.38989 1.10259 6.06861C1.03854 4.37731 2.08064 3.54564 2.13249 3.50446C2.44562 3.26249 2.8955 3.31942 3.13646 3.63206C3.37741 3.94165 3.32302 4.38443 3.02005 4.62844C2.98294 4.65945 2.53102 5.06563 2.53407 5.93491C2.5356 6.16927 2.56915 6.43717 2.65303 6.74168C2.75927 7.12345 2.53611 7.51794 2.15587 7.62418Z" fill="#FF4D4D"/>
</svg>
