<svg width="21" height="20" viewBox="0 0 21 20" fill="none" xmlns="http://www.w3.org/2000/svg">
<path d="M2.44755 5.06421C2.97038 4.69878 3.75852 4.76886 4.22796 5.15654L3.68955 4.37395C3.25627 3.75601 3.41145 3.08745 4.02995 2.65361C4.64845 2.22144 6.40106 3.38335 6.40106 3.38335C5.96388 2.75929 6.04564 1.96836 6.66971 1.53063C7.29377 1.09456 8.15478 1.24529 8.59196 1.87047L14.3876 10.0578L13.649 17.219L7.48455 14.9708L2.1077 6.99869C1.66663 6.37073 1.81903 5.50472 2.44755 5.06421Z" fill="#583529"/>
<path d="M2.07579 9.619C2.07579 9.619 1.44617 8.70126 2.36446 8.07219C3.28165 7.44313 3.91072 8.36031 3.91072 8.36031L6.83135 12.6197C6.93203 12.4518 7.04216 12.286 7.16508 12.1225L3.11145 6.21169C3.11145 6.21169 2.48238 5.2945 3.40012 4.66543C4.3173 4.03636 4.94637 4.95355 4.94637 4.95355L8.75916 10.5139C8.901 10.3982 9.04617 10.282 9.19579 10.168L4.77562 3.72099C4.77562 3.72099 4.14655 2.80381 5.06429 2.17474C5.98147 1.54567 6.61054 2.46286 6.61054 2.46286L11.0307 8.90873C11.1931 8.80917 11.3539 8.72296 11.5152 8.63174L7.38367 2.60691C7.38367 2.60691 6.7546 1.68973 7.67178 1.06066C8.58897 0.431591 9.21803 1.34877 9.21803 1.34877L13.5865 7.71956L14.2506 8.68847C11.4985 10.5762 11.2365 14.1276 12.8089 16.4208C13.1232 16.8797 13.582 16.5655 13.582 16.5655C11.6948 13.8128 12.2711 10.7197 15.0237 8.83253L14.2122 4.77111C14.2122 4.77111 13.9091 3.70097 14.9787 3.39728C16.0488 3.09415 16.3525 4.16429 16.3525 4.16429L17.2897 6.94755C17.6612 8.05106 18.0567 9.15068 18.5801 10.1908C20.0579 13.1276 19.1752 16.7774 16.3886 18.6891C13.349 20.7732 9.19356 19.9984 7.1089 16.9593L2.07579 9.619Z" fill="#7C533E"/>
<path d="M7.25144 17.7986C5.02661 17.7986 2.77843 15.5504 2.77843 13.3256C2.77843 13.018 2.55316 12.7694 2.24558 12.7694C1.938 12.7694 1.66602 13.018 1.66602 13.3256C1.66602 16.6629 3.9142 18.911 7.25144 18.911C7.55902 18.911 7.80764 18.6391 7.80764 18.3315C7.80764 18.0239 7.55902 17.7986 7.25144 17.7986Z" fill="#5DADEC"/>
<path d="M4.47059 18.8876C2.80197 18.8876 1.68956 17.7752 1.68956 16.1066C1.68956 15.799 1.44094 15.5503 1.13335 15.5503C0.825773 15.5503 0.577148 15.799 0.577148 16.1066C0.577148 18.3314 2.24577 20 4.47059 20C4.77817 20 5.0268 19.7514 5.0268 19.4438C5.0268 19.1362 4.77817 18.8876 4.47059 18.8876ZM13.9261 1.08899C13.6191 1.08899 13.3699 1.33817 13.3699 1.6452C13.3699 1.95222 13.6191 2.2014 13.9261 2.2014C16.1509 2.2014 18.3757 4.19763 18.3757 6.65105C18.3757 6.95808 18.6249 7.20726 18.9319 7.20726C19.239 7.20726 19.4882 6.95808 19.4882 6.65105C19.4882 3.58413 17.2633 1.08899 13.9261 1.08899Z" fill="#5DADEC"/>
<path d="M16.7076 0C16.4005 0 16.1514 0.22582 16.1514 0.532845C16.1514 0.839871 16.4005 1.11241 16.7076 1.11241C18.3762 1.11241 19.4652 2.34997 19.4652 3.87008C19.4652 4.17711 19.7372 4.42629 20.0448 4.42629C20.3524 4.42629 20.5777 4.17711 20.5777 3.87008C20.5777 1.73592 18.9324 0 16.7076 0Z" fill="#5DADEC"/>
</svg>
