<svg width="32" height="32" viewBox="0 0 32 32" fill="none" xmlns="http://www.w3.org/2000/svg">
<rect x="0.16" y="0.16" width="31.68" height="31.68" rx="4.84" fill="white"/>
<g clip-path="url(#clip0_9191_18398)">
<path d="M22.7184 25.2802V9.92024C22.7184 9.41103 22.5161 8.92267 22.156 8.5626C21.796 8.20253 21.3076 8.00024 20.7984 8.00024H11.1984C10.6892 8.00024 10.2008 8.20253 9.84075 8.5626C9.48068 8.92267 9.2784 9.41103 9.2784 9.92024V25.2802M22.7184 25.2802H9.2784M22.7184 25.2802H24.6384M22.7184 25.2802H17.9184M9.2784 25.2802H7.3584M9.2784 25.2802H14.0784M17.9184 25.2802V20.4802C17.9184 20.2256 17.8173 19.9815 17.6372 19.8014C17.4572 19.6214 17.213 19.5202 16.9584 19.5202H15.0384C14.7838 19.5202 14.5396 19.6214 14.3596 19.8014C14.1795 19.9815 14.0784 20.2256 14.0784 20.4802V25.2802M17.9184 25.2802H14.0784M13.1184 11.8402H14.0784M13.1184 15.6802H14.0784M17.9184 11.8402H18.8784M17.9184 15.6802H18.8784" stroke="#A6AFC2" stroke-linecap="round" stroke-linejoin="round"/>
</g>
<rect x="0.16" y="0.16" width="31.68" height="31.68" rx="4.84" stroke="#DFE2E9" stroke-width="0.32"/>
<defs>
<clipPath id="clip0_9191_18398">
<rect x="4" y="4" width="24" height="24" rx="12" fill="white"/>
</clipPath>
</defs>
</svg>
