<svg width="24" height="24" viewBox="0 0 24 24" fill="none" xmlns="http://www.w3.org/2000/svg">
    <path fill-rule="evenodd" clip-rule="evenodd"
          d="M11.2001 6.4C11.2001 2.86538 14.0654 0 17.6001 0C21.1347 0 24.0001 2.86538 24.0001 6.4C24.0001 9.93462 21.1347 12.8 17.6001 12.8C16.1211 12.8 14.7593 12.2983 13.6755 11.4559L8.33143 16.8L10.9657 19.4343L9.83438 20.5657L7.20006 17.9314L5.13143 20L7.76575 22.6343L6.63438 23.7657L4.00006 21.1314L1.36575 23.7657L0.234375 22.6343L12.5442 10.3245C11.7017 9.24077 11.2001 7.87897 11.2001 6.4ZM17.6001 1.6C14.9491 1.6 12.8001 3.74903 12.8001 6.4C12.8001 9.05097 14.9491 11.2 17.6001 11.2C20.251 11.2 22.4001 9.05097 22.4001 6.4C22.4001 3.74903 20.251 1.6 17.6001 1.6Z" fill="#000"/>
</svg>
