<svg width="24" height="24" viewBox="0 0 24 24" fill="none" xmlns="http://www.w3.org/2000/svg">
<path fill-rule="evenodd" clip-rule="evenodd" d="M17.5148 0H3.51151C2.39387 0 1.48828 0.906516 1.48828 2.02415V21.9749C1.48828 23.0925 2.39387 24 3.51151 24H20.4881C21.6057 24 22.5122 23.0935 22.5122 21.9749V2.02415C22.5122 0.906516 21.6057 0 20.4881 0H17.5148ZM19.2436 22.0157C19.9306 22.0157 20.4881 21.4582 20.4881 20.7712V3.26864C20.4881 2.58158 19.9297 2.02415 19.2436 2.02415H17.513H4.756C4.06894 2.02415 3.51151 2.58065 3.51151 3.26864V20.7712C3.51151 21.4582 4.06894 22.0157 4.756 22.0157H19.2436Z" fill="#0000CC"/>
<path d="M7.24375 8.27657C8.21489 8.27657 9.00215 7.4893 9.00215 6.51817C9.00215 5.54703 8.21489 4.75977 7.24375 4.75977C6.27261 4.75977 5.48535 5.54703 5.48535 6.51817C5.48535 7.4893 6.27261 8.27657 7.24375 8.27657Z" fill="#FF4D4D"/>
<path d="M17.2466 5.53711H11.25C10.6982 5.53711 10.25 5.97694 10.25 6.52881C10.25 7.08069 10.6972 7.52052 11.25 7.52052H17.2484C17.8003 7.52052 18.2466 7.08069 18.2466 6.52881C18.2466 5.97694 17.7994 5.53711 17.2466 5.53711Z" fill="#FF8B00"/>
<path d="M7.24375 13.2629C8.21489 13.2629 9.00215 12.4756 9.00215 11.5045C9.00215 10.5334 8.21489 9.74609 7.24375 9.74609C6.27261 9.74609 5.48535 10.5334 5.48535 11.5045C5.48535 12.4756 6.27261 13.2629 7.24375 13.2629Z" fill="#FF4D4D"/>
<path d="M17.2466 10.4922H11.25C10.6982 10.4922 10.25 10.9533 10.25 11.5052C10.25 12.0571 10.6972 12.5163 11.25 12.5163H17.2484C17.8003 12.5163 18.2466 12.0571 18.2466 11.5052C18.2466 10.9533 17.7994 10.4922 17.2466 10.4922Z" fill="#FF8B00"/>
<path d="M7.2438 18.595C8.21443 18.595 9.00128 17.8082 9.00128 16.8376C9.00128 15.8669 8.21443 15.0801 7.2438 15.0801C6.27318 15.0801 5.48633 15.8669 5.48633 16.8376C5.48633 17.8082 6.27318 18.595 7.2438 18.595Z" fill="#FF4D4D"/>
<path d="M17.2466 15.8203H11.25C10.6982 15.8203 10.25 16.2814 10.25 16.8333C10.25 17.3852 10.6972 17.8445 11.25 17.8445H17.2484C17.8003 17.8445 18.2466 17.3843 18.2466 16.8333C18.2466 16.2814 17.7994 15.8203 17.2466 15.8203Z" fill="#FF8B00"/>
</svg>
