<svg xmlns="http://www.w3.org/2000/svg" width="16" height="16" viewBox="0 0 16 16" fill="none">
  <path d="M1.6 1.06689C0.716344 1.06689 0 1.78324 0 2.66689V4.80023C0 5.68388 0.716344 6.40023 1.6 6.40023H3.73333C4.61699 6.40023 5.33333 5.68388 5.33333 4.80023V2.66689C5.33333 1.78324 4.61699 1.06689 3.73333 1.06689H1.6Z" fill="#000"/>
  <path d="M7.46667 4.26689H16V3.20023H7.46667V4.26689Z" fill="#000"/>
  <path d="M1.6 9.60023C0.716344 9.60023 0 10.3166 0 11.2002V13.3336C0 14.2172 0.716344 14.9336 1.6 14.9336H3.73333C4.61699 14.9336 5.33333 14.2172 5.33333 13.3336V11.2002C5.33333 10.3166 4.61699 9.60023 3.73333 9.60023H1.6Z" fill="#000"/>
  <path d="M7.46667 12.8002H16V11.7336H7.46667V12.8002Z" fill="#000"/>
</svg>