<svg width="16" height="16" viewBox="0 0 16 16" fill="none" xmlns="http://www.w3.org/2000/svg">
<g clip-path="url(#clip0_14821_16711)">
<path d="M6.6625 1.37573H1.09021C0.48246 1.37573 0 1.84809 0 2.45685V3.65012C0 4.15379 0.32585 4.57715 0.767895 4.71001V12.2217C0.767895 12.2425 0.776988 12.2632 0.777999 12.2849C0.825487 13.0947 1.53528 14.6244 3.87332 14.6244C6.03757 14.6244 6.84336 13.1614 6.96157 12.3885C6.96966 12.3339 6.9833 12.2763 6.9833 12.2217V4.71001C7.42484 4.57715 7.75119 4.15379 7.75119 3.65012V2.45685C7.75069 1.84809 7.27075 1.37573 6.6625 1.37573ZM6.65694 3.26718C6.65694 3.4738 6.48265 3.639 6.27501 3.639H6.25784C6.0497 3.639 5.89006 3.81026 5.89006 4.0179V12.2212C5.89006 12.2212 5.67585 13.5226 3.88545 13.5226C1.97076 13.5226 1.88033 12.2212 1.88033 12.2212V4.01891C1.88033 3.81127 1.70452 3.64001 1.49689 3.64001H1.4787C1.27157 3.64001 1.11294 3.47481 1.11294 3.26819V2.84888C1.11294 2.64124 1.27107 2.46948 1.4787 2.46948H6.27501C6.48265 2.46948 6.65694 2.64124 6.65694 2.84888V3.26718Z" fill="#0000CC"/>
<path d="M2.47461 11.9323C2.47461 11.9323 2.5317 12.9837 3.87501 12.9837C5.13092 12.9837 5.2749 11.9323 5.2749 11.9323V8.45459H2.47461V11.9323Z" fill="#FF4D4D"/>
<path d="M14.9166 1.37561H9.38877C8.78506 1.37561 8.30664 1.84847 8.30664 2.45723V3.6505C8.30664 4.15418 8.633 4.57753 9.07504 4.7104V12.2221C9.07504 12.2428 9.0806 12.2636 9.08161 12.2853C9.12809 13.0951 9.83132 14.6248 12.1512 14.6248C14.3003 14.6248 15.0964 13.1618 15.2137 12.3888C15.2217 12.3343 15.2323 12.2767 15.2323 12.2221V4.70989C15.6744 4.57702 16.0007 4.15367 16.0007 3.64999V2.45673C16.0007 1.84797 15.5228 1.37561 14.9166 1.37561ZM14.907 3.26756C14.907 3.47469 14.7398 3.63888 14.5342 3.63888H14.515C14.3109 3.63888 14.1401 3.81065 14.1401 4.01778V12.2211C14.1401 12.2211 13.9325 13.5225 12.1537 13.5225C10.2537 13.5225 10.1678 12.2211 10.1678 12.2211V4.01879C10.1678 3.81166 9.9955 3.63989 9.7904 3.63989H9.77221C9.5676 3.63989 9.4019 3.4757 9.4019 3.26857V2.84926C9.4019 2.64213 9.5676 2.46936 9.77221 2.46936H14.5337C14.7393 2.46936 14.9065 2.64213 14.9065 2.84926V3.26756H14.907Z" fill="#0000CC"/>
<path d="M10.7637 11.9328C10.7637 11.9328 10.8218 12.9841 12.153 12.9841C13.4013 12.9841 13.5453 11.9328 13.5453 11.9328V3.77344H10.7637V11.9328Z" fill="#FF8B00"/>
</g>
<defs>
<clipPath id="clip0_14821_16711">
<rect width="16" height="16" fill="white"/>
</clipPath>
</defs>
</svg>
