<svg width="16" height="16" viewBox="0 0 16 16" fill="none" xmlns="http://www.w3.org/2000/svg">
<g clip-path="url(#clip0_14821_5401)">
<path d="M7.99974 0C3.5881 0 0 3.58861 0 7.99974C0 12.4114 3.5881 16.0005 7.99974 16.0005C12.4104 16.0005 15.999 12.4119 15.999 7.99974C15.999 3.58861 12.4104 0 7.99974 0ZM7.99974 14.7264C4.29021 14.7264 1.27308 11.7093 1.27308 7.99923C1.27308 4.29072 4.29021 1.27257 7.99974 1.27257C11.7088 1.27257 14.7259 4.29072 14.7259 7.99923C14.7259 11.7093 11.7088 14.7264 7.99974 14.7264Z" fill="#0B0C7D"/>
<path d="M9.81809 6.31145V3.74079C9.81809 3.29789 9.45938 2.9397 9.017 2.9397H7.28418C6.84179 2.9397 6.48359 3.2984 6.48359 3.74079V6.31145H3.91192C3.46953 6.31145 3.11133 6.67016 3.11133 7.11254V8.8821C3.11133 9.32449 3.46953 9.6832 3.91192 9.6832H6.48308V12.2533C6.48308 12.6957 6.84128 13.0544 7.28367 13.0544H9.017C9.45887 13.0544 9.81758 12.6957 9.81758 12.2533V9.6832H12.3882C12.8306 9.6832 13.1893 9.32449 13.1893 8.8821V7.11254C13.1893 6.66965 12.8306 6.31145 12.3882 6.31145H9.81809Z" fill="#FF4D4D"/>
</g>
<defs>
<clipPath id="clip0_14821_5401">
<rect width="16" height="16" fill="white"/>
</clipPath>
</defs>
</svg>
