<svg width="16" height="16" viewBox="0 0 16 16" fill="none" xmlns="http://www.w3.org/2000/svg">
<g clip-path="url(#clip0_14821_22736)">
<path d="M6.14137 1.09204C5.78073 1.09204 5.48828 1.38449 5.48828 1.74513V2.64471H6.62677V2.59269C6.62677 2.36388 6.81214 2.17901 7.04045 2.17901H14.4982C14.7265 2.17901 14.9119 2.36388 14.9119 2.59269V7.97805C14.9119 8.12099 14.7962 8.23767 14.6528 8.23767V9.37616H15.3458C15.7064 9.37616 15.9994 9.08371 15.9994 8.72256V1.74513C15.9994 1.38449 15.7069 1.09204 15.3458 1.09204H6.14137Z" fill="#0000CC"/>
<path d="M3.3125 4.81856H4.39998C4.39998 4.59025 4.58484 4.40539 4.81315 4.40539H12.1058C12.4255 4.40539 12.6846 4.6645 12.6846 4.98423V10.2044C12.6846 10.3474 12.5689 10.4635 12.426 10.4635H12.3224V11.551H13.1195C13.4796 11.551 13.7726 11.2586 13.7726 10.8974V3.86241C13.7726 3.53308 13.5044 3.26538 13.1745 3.26538H3.96559C3.60495 3.26538 3.3125 3.55783 3.3125 3.91847V4.81856Z" fill="#D0D1FB"/>
<path d="M11.5986 8.49596C11.5986 7.75144 10.996 7.14987 10.252 7.14987H6.26473V7.15947L5.86369 6.2806C5.64498 5.80126 5.16615 5.49365 4.63933 5.49365H1.34609C0.602582 5.49365 0 6.09573 0 6.83974V7.14734V9.37634V14.1111C0 14.5278 0.337406 14.8668 0.754112 14.8688L10.9773 14.9087C11.346 14.9102 11.6824 14.6955 11.8365 14.3612L12.5855 12.7373C12.6421 12.614 12.6325 12.4706 12.5593 12.3554C12.4855 12.2413 12.3593 12.1731 12.2239 12.1731H11.5986V8.49596ZM7.71487 11.5523H6.6274V12.6913H5.4889V11.5523H4.40092V10.4648H5.4884V9.39251C5.4884 9.38341 5.49547 9.37735 5.50456 9.37735H6.60871H6.6274V10.4648H7.71487V11.5523Z" fill="#FF8B00"/>
</g>
<defs>
<clipPath id="clip0_14821_22736">
<rect width="16" height="16" fill="white"/>
</clipPath>
</defs>
</svg>
