<svg width="16" height="16" viewBox="0 0 16 16" fill="none" xmlns="http://www.w3.org/2000/svg">
<g clip-path="url(#clip0_14821_25667)">
<path fill-rule="evenodd" clip-rule="evenodd" d="M11.6765 0H2.341C1.59591 0 0.992188 0.604344 0.992188 1.34943V14.6499C0.992188 15.395 1.59591 16 2.341 16H13.6587C14.4038 16 15.0082 15.3956 15.0082 14.6499V1.34943C15.0082 0.604344 14.4038 0 13.6587 0H11.6765ZM12.8291 14.6771C13.2871 14.6771 13.6587 14.3055 13.6587 13.8474V2.1791C13.6587 1.72105 13.2865 1.34943 12.8291 1.34943H11.6753H3.17067C2.71262 1.34943 2.341 1.72044 2.341 2.1791V13.8474C2.341 14.3055 2.71262 14.6771 3.17067 14.6771H12.8291Z" fill="#0000CC"/>
<path d="M4.82852 5.51763C5.47594 5.51763 6.00078 4.99279 6.00078 4.34536C6.00078 3.69794 5.47594 3.1731 4.82852 3.1731C4.18109 3.1731 3.65625 3.69794 3.65625 4.34536C3.65625 4.99279 4.18109 5.51763 4.82852 5.51763Z" fill="#FF4D4D"/>
<path d="M11.4984 3.69092H7.50068C7.13276 3.69092 6.83398 3.98414 6.83398 4.35205C6.83398 4.71997 7.13214 5.01319 7.50068 5.01319H11.4996C11.8675 5.01319 12.1651 4.71997 12.1651 4.35205C12.1651 3.98414 11.8669 3.69092 11.4984 3.69092Z" fill="#FF8B00"/>
<path d="M4.82852 8.84185C5.47594 8.84185 6.00078 8.31701 6.00078 7.66958C6.00078 7.02216 5.47594 6.49731 4.82852 6.49731C4.18109 6.49731 3.65625 7.02216 3.65625 7.66958C3.65625 8.31701 4.18109 8.84185 4.82852 8.84185Z" fill="#FF4D4D"/>
<path d="M11.4984 6.99512H7.50068C7.13276 6.99512 6.83398 7.30254 6.83398 7.67045C6.83398 8.03837 7.13214 8.34455 7.50068 8.34455H11.4996C11.8675 8.34455 12.1651 8.03837 12.1651 7.67045C12.1651 7.30254 11.8669 6.99512 11.4984 6.99512Z" fill="#FF8B00"/>
<path d="M4.82985 12.3963C5.47694 12.3963 6.0015 11.8717 6.0015 11.2246C6.0015 10.5775 5.47694 10.053 4.82985 10.053C4.18277 10.053 3.6582 10.5775 3.6582 11.2246C3.6582 11.8717 4.18277 12.3963 4.82985 12.3963Z" fill="#FF4D4D"/>
<path d="M11.4984 10.5469H7.50068C7.13276 10.5469 6.83398 10.8543 6.83398 11.2222C6.83398 11.5901 7.13214 11.8963 7.50068 11.8963H11.4996C11.8675 11.8963 12.1651 11.5895 12.1651 11.2222C12.1651 10.8543 11.8669 10.5469 11.4984 10.5469Z" fill="#FF8B00"/>
</g>
<defs>
<clipPath id="clip0_14821_25667">
<rect width="16" height="16" fill="white"/>
</clipPath>
</defs>
</svg>
