<svg width="24" height="24" viewBox="0 0 24 24" fill="none" xmlns="http://www.w3.org/2000/svg">
<g clip-path="url(#clip0_11782_8480)">
<path d="M9.21206 1.63867C8.6711 1.63867 8.23242 2.07735 8.23242 2.61831V3.96768H9.94016V3.88964C9.94016 3.54643 10.2182 3.26913 10.5607 3.26913H21.7473C22.0898 3.26913 22.3679 3.54643 22.3679 3.88964V11.9677C22.3679 12.1821 22.1944 12.3571 21.9792 12.3571V14.0648H23.0187C23.5596 14.0648 23.9991 13.6262 23.9991 13.0845V2.61831C23.9991 2.07735 23.5604 1.63867 23.0187 1.63867H9.21206Z" fill="#D0D1FB"/>
<path d="M4.96973 7.2282H6.60094C6.60094 6.88575 6.87824 6.60845 7.2207 6.60845H18.1596C18.6392 6.60845 19.0279 6.99712 19.0279 7.47671V15.307C19.0279 15.5214 18.8544 15.6957 18.64 15.6957H18.4846V17.3269H19.6802C20.2204 17.3269 20.6598 16.8882 20.6598 16.3465V5.79398C20.6598 5.29999 20.2575 4.89844 19.7628 4.89844H5.94936C5.4084 4.89844 4.96973 5.33712 4.96973 5.87808V7.2282Z" fill="#D0D1FB"/>
<path d="M17.3979 12.7437C17.3979 11.6269 16.494 10.7246 15.378 10.7246H9.3971V10.739L8.79553 9.42065C8.46747 8.70164 7.74922 8.24023 6.95899 8.24023H2.01913C0.903873 8.24023 0 9.14335 0 10.2594V10.7208V14.0643V21.1665C0 21.7915 0.506109 22.2999 1.13117 22.3029L16.466 22.3628C17.019 22.3651 17.5236 22.0431 17.7547 21.5415L18.8783 19.1057C18.9632 18.9208 18.9488 18.7056 18.8389 18.5329C18.7283 18.3616 18.5389 18.2594 18.3358 18.2594H17.3979V12.7437ZM11.5723 17.3282H9.94109V19.0367H8.23336V17.3282H6.60138V15.697H8.2326V14.0885C8.2326 14.0749 8.24321 14.0658 8.25684 14.0658H9.91306H9.94109V15.697H11.5723V17.3282Z" fill="#FF8B00"/>
</g>
<defs>
<clipPath id="clip0_11782_8480">
<rect width="24" height="24" fill="white"/>
</clipPath>
</defs>
</svg>
