<svg xmlns="http://www.w3.org/2000/svg" width="17" height="16" viewBox="0 0 17 16" fill="none">
  <path d="M6.27895 2.66668C6.27895 1.19391 7.47899 0 8.95932 0C10.4396 0 11.6397 1.19391 11.6397 2.66668V6.93336C11.6397 8.40612 10.4396 9.60004 8.95932 9.60004C7.47899 9.60004 6.27895 8.40612 6.27895 6.93336V2.66668Z" fill="#0B0C7D"/>
  <path d="M3.0625 4.26668V6.93336C3.0625 9.99366 5.41774 12.5067 8.42324 12.7761V14.9334H6.27895V16.0001H11.6397V14.9334H9.49539V12.7761C12.5009 12.5067 14.8561 9.99366 14.8561 6.93336V4.26668H13.784V6.93336C13.784 9.58434 11.6239 11.7334 8.95932 11.7334C6.29473 11.7334 4.13465 9.58434 4.13465 6.93336V4.26668H3.0625Z" fill="#0B0C7D"/>
</svg>