
<svg width="49" height="48" viewBox="0 0 49 48" fill="none" xmlns="http://www.w3.org/2000/svg">
    <rect x="0.582031" y="0.5" width="47" height="47" rx="23.5" fill="white"/>
    <path fill-rule="evenodd" clip-rule="evenodd" d="M17.582 23.5C17.582 22.9477 18.0297 22.5 18.582 22.5C19.1343 22.5 19.582 22.9477 19.582 23.5C19.582 24.0523 19.1343 24.5 18.582 24.5C18.0297 24.5 17.582 24.0523 17.582 23.5ZM22.582 23.5C22.582 22.9477 23.0297 22.5 23.582 22.5C24.1343 22.5 24.582 22.9477 24.582 23.5C24.582 24.0523 24.1343 24.5 23.582 24.5C23.0297 24.5 22.582 24.0523 22.582 23.5ZM27.582 23.5C27.582 22.9477 28.0297 22.5 28.582 22.5C29.1343 22.5 29.582 22.9477 29.582 23.5C29.582 24.0523 29.1343 24.5 28.582 24.5C28.0297 24.5 27.582 24.0523 27.582 23.5Z" fill="#0B0C7D"/>
    <rect x="0.582031" y="0.5" width="47" height="47" rx="23.5" stroke="#0B0C7D"/>
</svg>
