<svg width="16" height="16" viewBox="0 0 16 16" fill="none" xmlns="http://www.w3.org/2000/svg">
<path d="M8.00013 3.19948C7.70558 3.19948 7.4668 2.9607 7.4668 2.66615C7.4668 2.37159 7.70558 2.13281 8.00013 2.13281C8.29468 2.13281 8.53346 2.37159 8.53346 2.66615C8.53346 2.9607 8.29468 3.19948 8.00013 3.19948Z" stroke="black"/>
<path d="M8.00013 8.53281C7.70558 8.53281 7.4668 8.29403 7.4668 7.99948C7.4668 7.70493 7.70558 7.46615 8.00013 7.46615C8.29468 7.46615 8.53346 7.70493 8.53346 7.99948C8.53346 8.29403 8.29468 8.53281 8.00013 8.53281Z" stroke="black"/>
<path d="M8.00013 13.8661C7.70558 13.8661 7.4668 13.6274 7.4668 13.3328C7.4668 13.0383 7.70558 12.7995 8.00013 12.7995C8.29468 12.7995 8.53346 13.0383 8.53346 13.3328C8.53346 13.6274 8.29468 13.8661 8.00013 13.8661Z" stroke="black"/>
</svg>


