<svg width="48" height="44" viewBox="0 0 48 44" fill="none" xmlns="http://www.w3.org/2000/svg">
    <rect x="0.5" y="0.5" width="47" height="43" rx="9.5" fill="white"/>
    <path fill-rule="evenodd" clip-rule="evenodd" d="M17.5 21.5C17.5 20.9477 17.9477 20.5 18.5 20.5C19.0523 20.5 19.5 20.9477 19.5 21.5C19.5 22.0523 19.0523 22.5 18.5 22.5C17.9477 22.5 17.5 22.0523 17.5 21.5ZM22.5 21.5C22.5 20.9477 22.9477 20.5 23.5 20.5C24.0523 20.5 24.5 20.9477 24.5 21.5C24.5 22.0523 24.0523 22.5 23.5 22.5C22.9477 22.5 22.5 22.0523 22.5 21.5ZM27.5 21.5C27.5 20.9477 27.9477 20.5 28.5 20.5C29.0523 20.5 29.5 20.9477 29.5 21.5C29.5 22.0523 29.0523 22.5 28.5 22.5C27.9477 22.5 27.5 22.0523 27.5 21.5Z" fill="#0B0C7D"/>
    <rect x="0.5" y="0.5" width="47" height="43" rx="9.5" stroke="#0B0C7D"/>
</svg>
