
<svg width="49" height="48" viewBox="0 0 49 48" fill="none" xmlns="http://www.w3.org/2000/svg">
    <rect x="0.582031" y="0.5" width="47" height="47" rx="23.5" fill="white"/>
    <path d="M20.2799 22.2641C20.8194 22.2641 21.2567 21.8267 21.2567 21.2872C21.2567 20.7477 20.8194 20.3103 20.2799 20.3103C19.7403 20.3103 19.303 20.7477 19.303 21.2872C19.303 21.8267 19.7403 22.2641 20.2799 22.2641Z" fill="#FF4D4D"/>
    <path d="M25.837 20.7419H22.5056C22.199 20.7419 21.95 20.9862 21.95 21.2928C21.95 21.5994 22.1985 21.8438 22.5056 21.8438H25.838C26.1446 21.8438 26.3926 21.5994 26.3926 21.2928C26.3926 20.9862 26.1441 20.7419 25.837 20.7419Z" fill="#FF8B00"/>
    <path d="M20.2799 25.0352C20.8194 25.0352 21.2567 24.5978 21.2567 24.0583C21.2567 23.5188 20.8194 23.0814 20.2799 23.0814C19.7403 23.0814 19.303 23.5188 19.303 24.0583C19.303 24.5978 19.7403 25.0352 20.2799 25.0352Z" fill="#FF4D4D"/>
    <path d="M25.837 23.4957H22.5056C22.199 23.4957 21.95 23.7518 21.95 24.0584C21.95 24.365 22.1985 24.6202 22.5056 24.6202H25.838C26.1446 24.6202 26.3926 24.365 26.3926 24.0584C26.3926 23.7518 26.1441 23.4957 25.837 23.4957Z" fill="#FF8B00"/>
    <path d="M20.2799 27.9963C20.8191 27.9963 21.2563 27.5592 21.2563 27.0199C21.2563 26.4807 20.8191 26.0435 20.2799 26.0435C19.7406 26.0435 19.3035 26.4807 19.3035 27.0199C19.3035 27.5592 19.7406 27.9963 20.2799 27.9963Z" fill="#FF4D4D"/>
    <path d="M25.837 26.4556H22.5056C22.199 26.4556 21.95 26.7118 21.95 27.0184C21.95 27.325 22.1985 27.5801 22.5056 27.5801H25.838C26.1446 27.5801 26.3926 27.3245 26.3926 27.0184C26.3926 26.7118 26.1441 26.4556 25.837 26.4556Z" fill="#FF8B00"/>
    <path d="M28.5885 16.4444H27.2552V16H28.5885V16.4444Z" fill="#0000CC"/>
    <path fill-rule="evenodd" clip-rule="evenodd" d="M27.9219 16.8889C26.3264 16.8889 25.033 18.1823 25.033 19.7778C25.033 21.3733 26.3264 22.6667 27.9219 22.6667C29.5174 22.6667 30.8108 21.3733 30.8108 19.7778C30.8108 18.1823 29.5174 16.8889 27.9219 16.8889ZM28.1441 19.5556V18.2222H27.6997V20H29.033V19.5556H28.1441Z" fill="#0000CC"/>
    <path d="M23.2064 17.6667H18.206C17.5851 17.6667 17.082 18.1703 17.082 18.7912V29.875C17.082 30.4959 17.5851 31 18.206 31H27.6375C28.2584 31 28.762 30.4964 28.762 29.875V24.2631C28.4889 24.3093 28.2082 24.3333 27.9219 24.3333C27.8264 24.3333 27.7316 24.3307 27.6375 24.3254L27.6379 29.2062C27.6379 29.5879 27.3283 29.8976 26.9466 29.8976H18.8979C18.5162 29.8976 18.2065 29.5879 18.2065 29.2062V19.4826C18.2065 19.1004 18.5162 18.7912 18.8979 18.7912L22.9509 18.7912C22.993 18.4012 23.0799 18.0246 23.2064 17.6667Z" fill="#0B0C7D"/>
    <rect x="0.582031" y="0.5" width="47" height="47" rx="23.5" stroke="#0B0C7D"/>
</svg>
