<svg width="16" height="16" viewBox="0 0 16 16" fill="none" xmlns="http://www.w3.org/2000/svg">
<g clip-path="url(#clip0_14821_20821)">
<path d="M7.93206 0C5.68083 0 3.60039 0.976117 1.90658 2.41199C1.03914 3.14771 0.745658 4.36122 1.18338 5.41096L2.2171 7.89007C3.20523 5.71897 5.39235 4.20947 7.93206 4.20947C10.5339 4.20947 12.7656 5.79209 13.7171 8.04683L14.8185 5.40495C15.2542 4.35922 14.9667 3.15272 14.1063 2.4155C12.3874 0.941559 10.2514 0 7.93206 0ZM9.17762 2.81967H8.45242V3.58043H7.43975V2.81967H6.67798V1.80549H7.43975V1.04423H8.45242V1.80549H9.17762V2.81967Z" fill="#0000CC"/>
<path d="M10.7167 5.72363C10.7162 5.72413 10.7152 5.72514 10.7152 5.72564C10.7152 5.72564 8.90571 8.56334 5.80257 9.59204C5.67787 9.63311 5.54114 9.58703 5.46702 9.47735C5.3939 9.36867 5.40091 9.22393 5.48605 9.12376C5.62278 8.963 5.76151 8.7832 5.88371 8.59439C5.97336 8.45566 5.96835 8.27586 5.87119 8.14214C5.77403 8.00842 5.60424 7.94882 5.44398 7.99189C4.4904 8.24831 2.94785 8.9665 2.4375 10.9618C2.6799 13.7835 5.04632 15.9992 7.9306 15.9992C10.9771 15.9992 13.4462 13.5301 13.4462 10.483C13.4467 8.45416 12.3494 6.68122 10.7167 5.72363Z" fill="#FF4D4D"/>
</g>
<defs>
<clipPath id="clip0_14821_20821">
<rect width="16" height="16" fill="white"/>
</clipPath>
</defs>
</svg>
