<svg width="16" height="12" viewBox="0 0 16 12" fill="none" xmlns="http://www.w3.org/2000/svg">
<path d="M6.96143 6C6.96143 5.17157 7.633 4.5 8.46143 4.5C9.28985 4.5 9.96143 5.17157 9.96143 6C9.96143 6.82843 9.28985 7.5 8.46143 7.5C7.633 7.5 6.96143 6.82843 6.96143 6Z" fill="#000"/>
<path fill-rule="evenodd" clip-rule="evenodd" d="M15.4614 5.99998C15.9256 5.8143 15.9255 5.81409 15.9254 5.81385L15.9246 5.81182L15.9229 5.80752L15.9171 5.79356C15.9123 5.78192 15.9054 5.76564 15.8965 5.74504C15.8786 5.70385 15.8525 5.64533 15.8179 5.57195C15.7488 5.42526 15.6454 5.21871 15.5058 4.97224C15.227 4.48029 14.8004 3.82375 14.208 3.16552C13.0225 1.84827 11.1473 0.5 8.46135 0.5C5.77536 0.5 3.90023 1.84827 2.71471 3.16552C2.1223 3.82375 1.69575 4.48029 1.41698 4.97224C1.27731 5.21872 1.17396 5.42526 1.10481 5.57195C1.07021 5.64533 1.04412 5.70386 1.02627 5.74505C1.01734 5.76564 1.01048 5.78192 1.00563 5.79356L0.999875 5.80752L0.998127 5.81182L0.997535 5.81329C0.997441 5.81353 0.997129 5.81431 1.46137 6L0.997129 5.81431L0.922852 6L0.997129 6.18569L1.46137 6C0.997129 6.18569 0.997035 6.18546 0.997129 6.18569L0.997535 6.18671L0.998127 6.18818L0.999875 6.19248L1.00563 6.20644C1.01048 6.21808 1.01734 6.23436 1.02627 6.25495C1.04412 6.29614 1.07021 6.35467 1.10481 6.42805C1.17396 6.57474 1.27731 6.78128 1.41698 7.02776C1.69575 7.51971 2.1223 8.17625 2.71471 8.83448C3.90023 10.1517 5.77536 11.5 8.46135 11.5C11.1473 11.5 13.0225 10.1517 14.208 8.83448C14.8004 8.17625 15.227 7.51971 15.5058 7.02776C15.6454 6.78129 15.7488 6.57474 15.8179 6.42805C15.8525 6.35467 15.8786 6.29615 15.8965 6.25496C15.9054 6.23436 15.9123 6.21808 15.9171 6.20644L15.9229 6.19248L15.9246 6.18818L15.9252 6.18671C15.9253 6.18647 15.9256 6.18566 15.4614 5.99998L15.9256 6.1857L15.9999 6L15.9254 5.81385L15.4614 5.99998ZM8.46143 3.5C7.08071 3.5 5.96143 4.61929 5.96143 6C5.96143 7.38071 7.08071 8.5 8.46143 8.5C9.84214 8.5 10.9614 7.38071 10.9614 6C10.9614 4.61929 9.84214 3.5 8.46143 3.5Z" fill="#000"/>
</svg>
