
<svg width="31" height="32" viewBox="0 0 31 32" fill="none" xmlns="http://www.w3.org/2000/svg">
<path d="M27.815 22.9415C26.0836 24.9684 23.703 26.3323 21.0787 26.8007C19.2584 27.1257 17.3988 27.0057 15.6541 26.4669C15.5945 26.4486 15.5301 26.4737 15.4993 26.5278L12.793 31.2665C12.6591 31.501 12.4587 31.6952 12.206 31.7906C11.7516 31.9623 11.3556 32.0138 10.7383 31.9969C10.634 31.9941 10.5305 31.976 10.4317 31.9429C9.79575 31.7302 9.43851 31.5173 8.99747 31.0528C8.92357 30.9751 8.86603 30.8831 8.8279 30.7829C8.57478 30.117 8.52912 29.6592 8.6149 28.9884C8.64143 28.7803 8.71176 28.5884 8.81773 28.4075C10.2235 26.0062 20.6356 8.21275 20.6356 8.00213C20.6356 7.7762 17.3596 8.22806 17.3596 8.22806C15.0066 8.68124 14.0326 8.88684 13.067 10.6003L8.32259 18.9595L8.09666 18.6207C7.37322 16.0549 7.4293 13.2816 8.49785 10.8393C9.56639 8.39711 11.4485 6.40097 13.8238 5.19095C16.1991 3.98081 18.9205 3.63189 21.5242 4.20331C24.128 4.77486 26.4531 6.23152 28.1032 8.32506C29.7535 10.4186 30.6266 13.0197 30.5741 15.6849C30.5215 18.3501 29.5464 20.9146 27.815 22.9415Z" fill="url(#paint0_linear_9780_2617)"/>
<path d="M3.32981 6.64365V9.3994C3.32981 9.69475 3.57474 9.94073 3.8685 9.94073H6.12106C6.41495 9.94073 6.65975 9.69475 6.65975 9.3994V6.64365H9.40204C9.69593 6.64365 9.94073 6.39753 9.94073 6.10232V3.83854C9.94073 3.5432 9.69593 3.29721 9.40204 3.24799H6.65975V0.541332C6.65975 0.492108 6.65975 0.492108 6.65975 0.442884C6.65975 0.39366 6.65975 0.39366 6.61079 0.344436C6.51287 0.147672 6.31703 0 6.12106 0H3.8685C3.57474 0 3.32981 0.24612 3.32981 0.541332V3.24799H0.58752C0.29376 3.24799 0.04896 3.49398 0 3.78932C0 3.78932 0 3.78932 0 3.83854V6.10232C0 6.15154 0 6.20064 0 6.24986C0.04896 6.49598 0.293761 6.64365 0.538561 6.64365H3.32981Z" fill="url(#paint1_linear_9780_2617)"/>
<defs>
<linearGradient id="paint0_linear_9780_2617" x1="20.0643" y1="24.2542" x2="13.9278" y2="12.4431" gradientUnits="userSpaceOnUse">
<stop stop-color="#121483"/>
<stop offset="1" stop-color="#FA8701" stop-opacity="0.93"/>
</linearGradient>
<linearGradient id="paint1_linear_9780_2617" x1="-4.48135" y1="-4.58594" x2="5.25258" y2="5.10002" gradientUnits="userSpaceOnUse">
<stop stop-color="#121483"/>
<stop offset="1" stop-color="#FA8701"/>
</linearGradient>
</defs>
</svg>
