<svg width="24" height="24" viewBox="0 0 24 24" fill="none" xmlns="http://www.w3.org/2000/svg">
<path fill-rule="evenodd" clip-rule="evenodd" d="M12.7402 0.668085C13.2866 0.720294 13.8481 0.861593 14.3035 1.10556C14.7775 1.35945 15.2558 1.62815 15.6988 1.87701C15.8818 1.97981 16.0587 2.07923 16.2269 2.17282C16.8232 2.50471 17.2898 2.75243 17.5953 2.87464C17.7099 2.92047 17.8016 2.93228 17.948 2.93236C17.9768 2.93237 18.0162 2.93137 18.0634 2.93015L18.0792 2.92975C18.3331 2.57034 18.7518 2.33564 19.2253 2.33564H19.8566C20.1249 1.90192 20.6049 1.61297 21.1524 1.61297H21.8149C23.0217 1.61297 24 2.59127 24 3.79808V6.35345C24 7.67893 22.9255 8.75345 21.6 8.75345H19.0757C18.2798 9.96503 17.2228 10.5601 16.3346 10.5601C15.9996 10.5601 15.7031 10.5268 15.4374 10.4692C15.3589 10.8482 15.1726 11.2104 14.8757 11.5073L12.4912 13.8918C11.554 14.8291 10.0344 14.8291 9.09713 13.8918L2.80828 7.60293C1.87103 6.66567 1.87103 5.14608 2.80828 4.20883L5.60423 1.41287C6.54148 0.475607 8.06109 0.475607 8.99834 1.41287L9.32704 1.74157C9.9123 1.22213 10.6138 0.927014 11.0562 0.800629C11.5932 0.647184 12.1903 0.61555 12.7402 0.668085ZM7.65519 2.39222C7.43272 2.28249 7.16985 2.28249 6.94738 2.39222C7.05757 2.43356 7.17684 2.45608 7.30128 2.45608C7.42573 2.45608 7.545 2.43356 7.65519 2.39222ZM5.74173 3.53811L5.05397 4.22587C5.37892 4.66042 5.57194 5.20025 5.57194 5.78543C5.57194 6.43238 5.33624 7.02366 4.9469 7.47881L9.22126 11.7532C9.6764 11.3638 10.2677 11.1281 10.9146 11.1281C11.4998 11.1281 12.0396 11.3212 12.4742 11.6461L13.1619 10.9584C12.837 10.5238 12.644 9.98398 12.644 9.39879C12.644 9.27117 12.6532 9.14549 12.671 9.02244L12.5574 8.9657C12.1909 8.78221 11.9651 8.66914 11.539 8.62842C11.0993 9.59908 10.1227 10.2741 8.98751 10.2741C7.44111 10.2741 6.18751 9.02053 6.18751 7.47413C6.18751 6.07053 7.22028 4.90814 8.56737 4.70544C8.7736 4.38322 9.03354 4.14644 9.31886 3.98451C9.16379 3.83196 9.00923 3.67972 8.86363 3.53602C8.4286 3.86222 7.88772 4.05608 7.30128 4.05608C6.7161 4.05608 6.17628 3.86305 5.74173 3.53811ZM11.7532 4.13141L11.5284 3.91129C11.3551 3.74148 11.1171 3.50814 10.8582 3.25399L10.4687 2.87122C10.7903 2.61119 11.1906 2.42625 11.4957 2.33907C11.8018 2.25162 12.1924 2.22303 12.588 2.26083C12.987 2.29896 13.3289 2.39855 13.548 2.51592C14.0071 2.7619 14.462 3.01744 14.8993 3.26311C15.086 3.368 15.2695 3.47109 15.4487 3.57086C16.0268 3.8926 16.5839 4.19333 17.0011 4.3602C17.3132 4.48506 17.5852 4.52188 17.8231 4.53026V7.74093C17.2154 8.7512 16.5431 8.96013 16.3346 8.96013C15.7281 8.96013 15.3834 8.8016 15.0964 8.61493C14.9773 8.53747 14.8788 8.46304 14.7611 8.37407C14.7083 8.33415 14.6514 8.29118 14.5872 8.24381C14.3995 8.10521 14.1651 7.94274 13.8796 7.82036C13.7304 7.75643 13.584 7.68264 13.4323 7.60617C12.8957 7.33564 12.2926 7.03161 11.2656 7.01253L11.2524 7.01239C11.2524 7.01239 11.2436 7.01192 11.2283 7.00983C11.208 7.00705 11.18 7.00206 11.1439 6.9938C10.9591 6.95144 10.6864 6.85175 10.4099 6.71191C10.1277 6.56916 9.90878 6.41845 9.79409 6.30376C9.72822 6.23789 9.71318 6.20873 9.70642 6.18446C9.70299 6.17227 9.67278 6.06492 9.79034 5.80268C9.81746 5.74218 9.85238 5.67376 9.89717 5.59711C10.0125 5.3997 10.1581 5.32978 10.3116 5.31117C10.4958 5.28883 10.6892 5.34547 10.8043 5.42287C11.4358 5.84762 12.2006 6.0421 12.7893 6.17274C12.9179 6.20128 13.0335 6.22576 13.1412 6.24857C13.3054 6.28333 13.4514 6.31425 13.597 6.34972C13.8365 6.40807 13.9635 6.45438 14.0234 6.48719L14.7916 5.08368C14.5352 4.94329 14.2329 4.85785 13.9757 4.79519C13.8117 4.75523 13.6202 4.71453 13.4348 4.67513C13.3315 4.65319 13.2296 4.63152 13.136 4.61075C12.5815 4.4877 12.1056 4.35039 11.7532 4.13141ZM19.4231 7.15345H19.6298V3.93564H19.4231V7.15345ZM21.2298 7.15345H21.6C22.0418 7.15345 22.4 6.79528 22.4 6.35345V3.79808C22.4 3.47493 22.138 3.21297 21.8149 3.21297H21.2298V7.15345ZM8.16215 6.60305C7.93142 6.82174 7.78751 7.13113 7.78751 7.47413C7.78751 8.13687 8.32477 8.67413 8.98751 8.67413C9.35648 8.67413 9.68703 8.50731 9.9073 8.24502C9.83319 8.21132 9.75979 8.17609 9.68781 8.13969C9.33301 7.96024 8.94681 7.71922 8.66271 7.43512C8.53153 7.30394 8.2829 7.0368 8.16507 6.61369L8.16215 6.60305ZM11.3082 12.8078C11.1872 12.7564 11.0541 12.7281 10.9146 12.7281C10.7193 12.7281 10.5366 12.7838 10.3818 12.8805C10.6699 13.0541 11.0439 13.0299 11.3082 12.8078ZM3.81962 6.3183C3.91632 6.16351 3.97194 5.98078 3.97194 5.78543C3.97194 5.64592 3.94364 5.5129 3.89224 5.39189C3.67021 5.65612 3.646 6.03013 3.81962 6.3183Z" fill="#0000CC"/>
<path fill-rule="evenodd" clip-rule="evenodd" d="M7.66535 14.0188C6.77716 14.0188 5.72021 14.6139 4.9243 15.8255H2.4C1.07452 15.8255 0 16.9 0 18.2255V20.7809C0 21.9877 0.978308 22.966 2.18511 22.966H2.84756C3.39505 22.966 3.87505 22.677 4.14339 22.2433H4.77468C5.24819 22.2433 5.66687 22.0086 5.92076 21.6492L5.93655 21.6488C5.98384 21.6476 6.02322 21.6466 6.05205 21.6466C6.19838 21.6467 6.29009 21.6585 6.40468 21.7043C6.71019 21.8265 7.17684 22.0742 7.77312 22.4061C7.94129 22.4997 8.11828 22.5992 8.30129 22.702C8.74427 22.9508 9.22255 23.2195 9.69647 23.4734C10.1519 23.7174 10.7134 23.8587 11.2598 23.9109C11.8097 23.9634 12.4068 23.9318 12.9438 23.7783C13.2505 23.6907 15.0208 23.0821 16.7694 22.4274C17.6496 22.0979 18.5412 21.7504 19.2561 21.4439C19.6126 21.291 19.9352 21.1441 20.1944 21.0114C20.4183 20.8969 20.6983 20.7432 20.8777 20.5637C21.5705 19.8709 21.7802 18.8785 21.4658 18.0561C21.3062 17.6388 21.0099 17.2671 20.5825 17.0293C20.154 16.7909 19.6458 16.7154 19.1064 16.7984C17.9431 16.9773 17.2344 17.2059 15.7696 17.7748L15.7373 17.8028C15.7444 17.8187 15.7513 17.835 15.758 17.8516C15.9086 18.2217 15.949 18.67 15.7618 19.1999C15.6943 19.391 15.6018 19.5871 15.4838 19.789C15.0954 20.4539 14.4883 20.7825 13.8804 20.8562C13.3031 20.9262 12.7262 20.769 12.3022 20.4838C11.9449 20.2435 11.4478 20.098 10.8635 19.9683C10.7699 19.9475 10.6682 19.9259 10.5649 19.9039C10.3795 19.8645 10.1878 19.8238 10.0237 19.7838C9.76652 19.7212 9.46429 19.6357 9.20781 19.4953L9.97604 18.0918C10.036 18.1246 10.1629 18.1709 10.4024 18.2293C10.548 18.2648 10.694 18.2957 10.8582 18.3304C10.9659 18.3532 11.0815 18.3777 11.2102 18.4063C11.7988 18.5369 12.5637 18.7314 13.1952 19.1561C13.3102 19.2335 13.5036 19.2902 13.6878 19.2678C13.8413 19.2492 13.987 19.1793 14.1023 18.9819C14.1769 18.8542 14.2239 18.7498 14.2531 18.667C14.2854 18.5756 14.2875 18.525 14.287 18.5051C14.2866 18.4867 14.2835 18.473 14.276 18.4545C14.2658 18.4295 14.2493 18.3989 14.2076 18.333L14.1967 18.3159C14.1791 18.2884 14.1538 18.2487 14.1323 18.2127C14.1043 18.1657 14.0645 18.0955 14.0303 18.0117C13.8066 17.4632 13.3557 16.8969 11.8026 15.7852C11.6902 15.7373 11.5757 15.6799 11.4426 15.6133C11.2606 15.5221 11.0439 15.4136 10.7507 15.288C10.6391 15.2401 10.5243 15.1669 10.3629 15.0478C10.3281 15.0221 10.2885 14.9922 10.2454 14.9596C10.1127 14.8594 9.94573 14.7332 9.77594 14.6228C9.26786 14.2923 8.62458 14.0188 7.66535 14.0188ZM4.37023 17.4255H4.5769V20.6433H4.37023V17.4255ZM2.4 17.4255H2.77023V21.366H2.18511C1.86197 21.366 1.6 21.104 1.6 20.7809V18.2255C1.6 17.7837 1.95817 17.4255 2.4 17.4255Z" fill="#0000CC"/>
</svg>
