<svg width="115" height="24" viewBox="0 0 115 24" fill="none" xmlns="http://www.w3.org/2000/svg">
<path d="M20.9866 17.2061C19.688 18.7263 17.9026 19.7492 15.9344 20.1005C14.5691 20.3442 13.1744 20.2543 11.8658 19.8502C11.8212 19.8364 11.7729 19.8552 11.7497 19.8958L9.72002 23.4498C9.61956 23.6257 9.46931 23.7714 9.27977 23.843C8.939 23.9717 8.64197 24.0103 8.17896 23.9977C8.10076 23.9956 8.02317 23.982 7.94903 23.9572C7.47207 23.7976 7.20414 23.638 6.87336 23.2896C6.81793 23.2313 6.77478 23.1623 6.74617 23.0872C6.55634 22.5877 6.52209 22.2444 6.58642 21.7413C6.60632 21.5852 6.65907 21.4413 6.73855 21.3056C7.79285 19.5046 15.602 6.15943 15.602 6.00147C15.602 5.83202 13.145 6.17091 13.145 6.17091C11.3803 6.5108 10.6497 6.665 9.92549 7.95011L6.36719 14.2196L6.19774 13.9654C5.65515 12.0411 5.69722 9.96112 6.49863 8.12936C7.30005 6.2977 8.71165 4.80058 10.4931 3.89307C12.2746 2.98546 14.3157 2.72376 16.2685 3.15233C18.2213 3.581 19.9652 4.6735 21.2028 6.24366C22.4405 7.81382 23.0953 9.76465 23.0559 11.7636C23.0165 13.7625 22.2852 15.6859 20.9866 17.2061Z" fill="url(#paint0_linear_1002_3011)"/>
<path d="M2.62042 4.98277V7.0496C2.62042 7.27111 2.80412 7.4556 3.02444 7.4556H4.71387C4.93429 7.4556 5.11789 7.27111 5.11789 7.0496V4.98277H7.17462C7.39504 4.98277 7.57865 4.79818 7.57865 4.57677V2.87893C7.57865 2.65742 7.39504 2.47293 7.17462 2.43601H5.11789V0.406002C5.11789 0.369084 5.11789 0.369083 5.11789 0.332165C5.11789 0.295247 5.1179 0.295247 5.08117 0.258329C5.00773 0.110755 4.86085 0 4.71387 0H3.02444C2.80412 0 2.62042 0.184592 2.62042 0.406002V2.43601H0.56369C0.343368 2.43601 0.159767 2.6205 0.123047 2.84201C0.123047 2.84201 0.123047 2.84201 0.123047 2.87893V4.57677C0.123047 4.61369 0.123047 4.65051 0.123047 4.68743C0.159767 4.87202 0.343369 4.98277 0.526971 4.98277H2.62042Z" fill="url(#paint1_linear_1002_3011)"/>
<path d="M25.4443 18.2826V9.28602C25.4443 8.45085 25.8998 7.99536 26.735 7.99536H27.1525C27.9876 7.99536 28.4431 8.45085 28.4431 9.28602V18.2826C28.4431 19.1177 27.9876 19.5732 27.1525 19.5732H26.735C25.8998 19.5732 25.4443 19.1177 25.4443 18.2826Z" fill="#121483"/>
<path d="M33.6433 19.6872C31.4796 19.6872 30.0371 18.0549 30.0371 15.2078C30.0371 12.3608 31.4796 10.7285 33.6433 10.7285C34.7062 10.7285 35.807 11.2599 36.1867 12.171V12.0192C36.1867 11.222 36.6801 10.8423 37.4774 10.8423H37.8569C38.692 10.8423 39.1476 11.2979 39.1476 12.133V18.2826C39.1476 19.1178 38.692 19.5732 37.8569 19.5732H37.4774C36.6801 19.5732 36.1867 19.1937 36.1867 18.4344V18.2826C35.807 19.1557 34.6682 19.6872 33.6433 19.6872ZM36.3005 15.2078C36.3005 13.9171 35.6552 13.12 34.6303 13.12C33.6433 13.12 32.9601 13.9551 32.9601 15.2078C32.9601 16.4984 33.6433 17.3336 34.6303 17.3336C35.6173 17.3336 36.3005 16.4984 36.3005 15.2078Z" fill="#121483"/>
<path d="M45.8288 19.725C43.3234 19.725 42.1845 18.738 42.1845 16.1187V13.0819H41.9568C41.3495 13.0819 41.0078 12.6643 41.0078 11.9811C41.0078 11.2599 41.3495 10.8802 41.9568 10.8802H42.2226V10.4247C42.2226 9.66545 42.5641 9.28587 43.4752 9.09613L43.8169 9.02012C44.8418 8.79237 45.2213 9.17205 45.2213 10.083V10.8802H46.1324C47.0814 10.8802 47.4231 11.2599 47.4231 11.9811C47.4231 12.7023 47.0814 13.0819 46.1324 13.0819H45.1454V15.891C45.1454 16.9539 45.5251 17.3715 46.3223 17.4474C46.9676 17.5233 47.3472 17.8269 47.3852 18.4723C47.3852 19.1556 47.0814 19.6491 46.2463 19.725C46.1324 19.687 45.9806 19.725 45.8288 19.725Z" fill="#121483"/>
<path d="M53.0034 19.6872C50.2322 19.6872 48.4102 17.9409 48.4102 15.2078C48.4102 12.5127 50.2702 10.7285 52.9654 10.7285C55.5087 10.7285 57.141 12.133 57.3308 14.5246C57.4067 15.3976 56.9891 15.8152 56.0402 15.8152H51.371C51.409 16.954 52.0923 17.6373 53.1931 17.6373C53.8005 17.6373 54.256 17.4474 54.6736 17.1438C55.0912 16.8021 55.3569 16.6503 56.0022 16.8021L56.23 16.8401C57.1031 17.03 57.217 17.5233 56.6476 18.2447C55.9263 19.1178 54.6357 19.6872 53.0034 19.6872ZM53.0034 12.6265C52.1303 12.6265 51.4469 13.1959 51.371 14.1449H54.5977C54.5597 13.1959 53.9144 12.6265 53.0034 12.6265Z" fill="#121483"/>
<path d="M62.2273 19.6872C60.0636 19.6872 58.6211 18.0549 58.6211 15.2078C58.6211 12.3608 60.0636 10.7285 62.2273 10.7285C63.2902 10.7285 64.391 11.2599 64.7706 12.171V12.0192C64.7706 11.222 65.2641 10.8423 66.0612 10.8423H66.4409C67.276 10.8423 67.7316 11.2979 67.7316 12.133V18.2826C67.7316 19.1178 67.276 19.5732 66.4409 19.5732H66.0612C65.2641 19.5732 64.7706 19.1937 64.7706 18.4344V18.2826C64.391 19.1557 63.2902 19.6872 62.2273 19.6872ZM64.8845 15.2078C64.8845 13.9171 64.2392 13.12 63.2143 13.12C62.2273 13.12 61.544 13.9551 61.544 15.2078C61.544 16.4984 62.2273 17.3336 63.2143 17.3336C64.2013 17.3336 64.8845 16.4984 64.8845 15.2078Z" fill="#121483"/>
<path d="M76.994 10.8423C77.8291 10.8423 78.2846 11.2978 78.2846 12.1329V18.2824C78.2846 19.1176 77.8291 19.5731 76.994 19.5731H76.6144C75.7792 19.5731 75.3237 19.1176 75.3237 18.3584C74.9441 19.1176 73.9572 19.687 72.7803 19.687C70.5028 19.687 69.5537 18.4723 69.5537 15.7391V12.1708C69.5537 11.3358 70.0093 10.8802 70.8444 10.8802H71.224C72.0591 10.8802 72.5147 11.3358 72.5147 12.1708V15.4355C72.5147 16.7261 72.9702 17.2955 73.9192 17.2955C74.9442 17.2955 75.3237 16.6881 75.3237 15.3975V12.1708C75.3237 11.3358 75.7792 10.8802 76.6144 10.8802L76.994 10.8423Z" fill="#121483"/>
<path d="M79.8788 18.2066L81.0935 9.74143C81.2074 8.94427 81.6629 8.5647 82.46 8.5647H83.9026C84.6617 8.5647 85.1172 8.94427 85.3071 9.66551L87.0909 16.3465L88.8755 9.66551C89.0655 8.90636 89.5208 8.5647 90.2799 8.5647H91.722C92.5198 8.5647 92.9751 8.98228 93.0889 9.74143L94.3033 18.2066C94.4172 19.0797 94.0005 19.5732 93.1265 19.5732H92.595C91.7982 19.5732 91.343 19.1556 91.2291 18.3584L90.47 12.5505L88.7993 18.4723C88.6092 19.1936 88.1539 19.5732 87.3572 19.5732H86.7495C85.9904 19.5732 85.5348 19.1936 85.3071 18.4723L83.6748 12.5885L82.9156 18.3964C82.8017 19.1936 82.3462 19.6112 81.549 19.6112H81.0175C80.1825 19.5732 79.7649 19.0797 79.8788 18.2066Z" fill="#121483"/>
<path d="M95.5566 15.2078C95.5566 12.5127 97.4164 10.7285 100.112 10.7285C102.655 10.7285 104.287 12.133 104.477 14.5246C104.553 15.3976 104.135 15.8152 103.187 15.8152H98.517C98.5556 16.954 99.2386 17.6373 100.339 17.6373C100.947 17.6373 101.402 17.4474 101.82 17.1438C102.238 16.8021 102.503 16.6503 103.148 16.8021L103.376 16.8401C104.249 17.03 104.363 17.5233 103.793 18.2447C103.072 19.1178 101.82 19.6872 100.149 19.6872C97.3788 19.6872 95.5566 17.9409 95.5566 15.2078ZM100.188 12.6265C99.3148 12.6265 98.6308 13.1959 98.5556 14.1449H101.782C101.706 13.1959 101.098 12.6265 100.188 12.6265Z" fill="#121483"/>
<path d="M105.768 15.2078C105.768 12.3608 107.21 10.7285 109.373 10.7285C110.436 10.7285 111.537 11.2599 111.917 12.171V9.28602C111.917 8.45085 112.372 7.99536 113.208 7.99536H113.587C114.422 7.99536 114.877 8.45085 114.877 9.28602V18.2447C114.877 19.0797 114.422 19.5353 113.587 19.5353H113.208C112.41 19.5353 111.917 19.1557 111.917 18.5483V18.2447C111.537 19.1177 110.399 19.6491 109.373 19.6491C107.21 19.6872 105.768 18.0548 105.768 15.2078ZM112.031 15.2078C112.031 13.9171 111.385 13.12 110.36 13.12C109.373 13.12 108.69 13.9551 108.69 15.2078C108.69 16.4984 109.373 17.3336 110.36 17.3336C111.385 17.3336 112.031 16.4984 112.031 15.2078Z" fill="#121483"/>
<defs>
<linearGradient id="paint0_linear_1002_3011" x1="15.1735" y1="18.1906" x2="10.5711" y2="9.33222" gradientUnits="userSpaceOnUse">
<stop stop-color="#121483"/>
<stop offset="1" stop-color="#FA8701" stop-opacity="0.93"/>
</linearGradient>
<linearGradient id="paint1_linear_1002_3011" x1="-3.23799" y1="-3.43948" x2="4.06251" y2="3.82504" gradientUnits="userSpaceOnUse">
<stop stop-color="#121483"/>
<stop offset="1" stop-color="#FA8701"/>
</linearGradient>
</defs>
</svg>
