<svg width="16" height="16" viewBox="0 0 16 16" fill="none" xmlns="http://www.w3.org/2000/svg">
<path d="M0.666016 2.66667V6.66667M0.666016 6.66667H4.66602M0.666016 6.66667L3.75935 3.76001C4.67996 2.84095 5.87432 2.24599 7.16247 2.06475C8.45062 1.88352 9.76278 2.12583 10.9012 2.75518C12.0397 3.38454 12.9428 4.36684 13.4744 5.55407C14.0061 6.74131 14.1375 8.06917 13.8488 9.33758C13.5602 10.606 12.8671 11.7462 11.8741 12.5865C10.8811 13.4268 9.64185 13.9216 8.34316 13.9963C7.04447 14.0711 5.75667 13.7217 4.67379 13.0009C3.59091 12.2801 2.77161 11.2269 2.33935 10" stroke="#0B0C7D" stroke-linecap="round" stroke-linejoin="round"/>
<g clip-path="url(#clip0_14535_4534)">
<path d="M8.66413 7.48914C8.84064 7.31263 8.9398 7.07324 8.9398 6.82362C8.9398 6.57401 8.84064 6.33462 8.66413 6.15811C8.48763 5.98161 8.24824 5.88245 7.99862 5.88245C7.74901 5.88245 7.50961 5.98161 7.33311 6.15811C7.1566 6.33462 7.05744 6.57401 7.05744 6.82362C7.05744 7.07324 7.1566 7.31263 7.33311 7.48914C7.50961 7.66564 7.74901 7.7648 7.99862 7.7648C8.24824 7.7648 8.48763 7.66564 8.66413 7.48914Z" stroke="#0B0C7D" stroke-linecap="round" stroke-linejoin="round"/>
<path d="M6.83397 8.95309C7.14286 8.64421 7.56179 8.47068 7.99862 8.47068C8.43545 8.47068 8.85438 8.64421 9.16327 8.95309C9.47215 9.26198 9.64568 9.68091 9.64568 10.1177H6.35156C6.35156 9.68091 6.52509 9.26198 6.83397 8.95309Z" stroke="#0B0C7D" stroke-linecap="round" stroke-linejoin="round"/>
</g>
<defs>
<clipPath id="clip0_14535_4534">
<rect width="5.64706" height="5.64706" fill="white" transform="translate(5.17578 5.17651)"/>
</clipPath>
</defs>
</svg>
