<svg width="37" height="36" viewBox="0 0 37 36" fill="none" xmlns="http://www.w3.org/2000/svg">
<path fill-rule="evenodd" clip-rule="evenodd" d="M2.90039 1.2C2.90039 0.537258 3.43765 0 4.10039 0H32.9004C33.5631 0 34.1004 0.537258 34.1004 1.2V34.8C34.1004 35.2159 33.885 35.6021 33.5313 35.8208C33.1775 36.0394 32.7357 36.0593 32.3637 35.8733L28.1004 33.7416L23.837 35.8733C23.4992 36.0422 23.1016 36.0422 22.7637 35.8733L18.5004 33.7416L14.237 35.8733C13.8992 36.0422 13.5016 36.0422 13.1637 35.8733L8.90039 33.7416L4.63705 35.8733C4.26506 36.0593 3.82329 36.0394 3.46951 35.8208C3.11573 35.6021 2.90039 35.2159 2.90039 34.8V1.2ZM10.1004 12H14.9004V9.6H10.1004V12ZM19.7004 12H26.9004V9.6H19.7004V12ZM14.9004 19.2H10.1004V16.8H14.9004V19.2ZM19.7004 19.2H26.9004V16.8H19.7004V19.2ZM26.9004 26.4H19.7004V24H26.9004V26.4Z" fill="#000"/>
</svg>
