<svg width="32" height="32" viewBox="0 0 32 32" fill="none" xmlns="http://www.w3.org/2000/svg">
<rect width="32" height="32" rx="5" fill="#FFDBDB"/>
<path fill-rule="evenodd" clip-rule="evenodd" d="M17.2526 9.88232H13.6471V14.1176C13.6471 15.9369 12.1722 17.4117 10.3529 17.4117H8.94118V22.5882C8.94118 23.3679 9.57324 24 10.3529 24H19.7647C20.5444 24 21.1765 23.3679 21.1765 22.5882V15.0693C20.8992 15.1393 20.6089 15.1765 20.3099 15.1765C19.586 15.1765 18.913 14.9585 18.3529 14.5847V14.5882H14.5882V13.647H17.4014C17.0097 13.0786 16.7804 12.3896 16.7804 11.6471C16.7804 11.0042 16.9523 10.4015 17.2526 9.88232ZM8 9.88232V14.1176C8 15.4171 9.05345 16.4706 10.3529 16.4706C11.6524 16.4706 12.7059 15.4171 12.7059 14.1176V11.2941C12.7059 10.5144 12.0738 9.88232 11.2941 9.88232C10.5144 9.88232 9.88235 10.5144 9.88235 11.2941V14.5882H10.8235V11.2941C10.8235 11.0342 11.0342 10.8235 11.2941 10.8235C11.554 10.8235 11.7647 11.0342 11.7647 11.2941V14.1176C11.7647 14.8973 11.1326 15.5294 10.3529 15.5294C9.57325 15.5294 8.94118 14.8973 8.94118 14.1176V9.88232H8ZM14.5882 16.4706H18.3529V17.4117H14.5882V16.4706ZM18.3529 19.2941H11.7647V20.2353H18.3529V19.2941Z" fill="#051438"/>
<path fill-rule="evenodd" clip-rule="evenodd" d="M17.7061 11.6471C17.7061 10.1851 18.8912 9 20.3531 9C21.815 9 23.0002 10.1851 23.0002 11.6471C23.0002 13.109 21.815 14.2941 20.3531 14.2941C18.8912 14.2941 17.7061 13.109 17.7061 11.6471ZM20.1766 11.8235V10.4118H20.5296V11.8235H20.1766ZM20.5296 12.5294V12.8859H20.1766V12.5294H20.5296Z" fill="#FF2C2C"/>
</svg>
