<svg width="81" height="81" viewBox="0 0 81 81" fill="none" xmlns="http://www.w3.org/2000/svg">
<rect x="0.5" y="0.5" width="80" height="80" rx="40" fill="#EFF1F4"/>
<path d="M34.6333 15.5664H39.9667V16.6331L34.6333 16.6331V15.5664Z" fill="#0B0C7D"/>
<path d="M41.0333 23.5664C41.0333 22.6828 41.7497 21.9664 42.6333 21.9664C43.517 21.9664 44.2333 22.6828 44.2333 23.5664C44.2333 24.4501 43.517 25.1664 42.6333 25.1664C41.7497 25.1664 41.0333 24.4501 41.0333 23.5664Z" fill="#0B0C7D"/>
<path fill-rule="evenodd" clip-rule="evenodd" d="M32.5 27.8331C32.5 28.7167 33.2163 29.4331 34.1 29.4331L46.9 29.4331C47.7837 29.4331 48.5 28.7167 48.5 27.8331V19.2997C48.5 18.4161 47.7837 17.6997 46.9 17.6997H34.1C33.2163 17.6997 32.5 18.4161 32.5 19.2997V27.8331ZM42.6333 20.8997C41.1606 20.8997 39.9667 22.0936 39.9667 23.5664C39.9667 25.0392 41.1606 26.2331 42.6333 26.2331C44.1061 26.2331 45.3 25.0392 45.3 23.5664C45.3 22.0936 44.1061 20.8997 42.6333 20.8997Z" fill="#0B0C7D"/>
<path fill-rule="evenodd" clip-rule="evenodd" d="M40.9004 35.3008V44.3351L43.4176 41.8179L43.9833 42.3836L40.5004 45.8665L37.0176 42.3836L37.5833 41.8179L40.1004 44.3351V35.3008H40.9004Z" fill="#051438"/>
<path d="M32.5 55.3V50.5H33.5667V55.3C33.5667 56.1837 34.283 56.9 35.1667 56.9C36.0503 56.9 36.7667 56.1837 36.7667 55.3V52.1C36.7667 51.8054 36.5279 51.5667 36.2333 51.5667C35.9388 51.5667 35.7 51.8054 35.7 52.1V55.8333H34.6333V52.1C34.6333 51.2163 35.3497 50.5 36.2333 50.5C37.117 50.5 37.8333 51.2163 37.8333 52.1V55.3C37.8333 56.7728 36.6394 57.9667 35.1667 57.9667C33.6939 57.9667 32.5 56.7728 32.5 55.3Z" fill="#0B0C7D"/>
<path fill-rule="evenodd" clip-rule="evenodd" d="M45.8333 50.5H38.9V55.3C38.9 57.3619 37.2285 59.0333 35.1667 59.0333H33.5667V64.9C33.5667 65.7837 34.283 66.5 35.1667 66.5H45.8333C46.717 66.5 47.4333 65.7837 47.4333 64.9V52.1C47.4333 51.2163 46.717 50.5 45.8333 50.5ZM44.2333 54.7667H39.9667V55.8333H44.2333V54.7667ZM44.2333 57.9667H39.9667V59.0333H44.2333V57.9667ZM36.7667 61.1667H44.2333V62.2333H36.7667V61.1667Z" fill="#0B0C7D"/>
</svg>
