<svg xmlns="http://www.w3.org/2000/svg" width="17" height="16" viewBox="0 0 17 16" fill="none">
    <path fill-rule="evenodd" clip-rule="evenodd" d="M9.49539 0V9.6H8.42324V0H9.49539ZM14.199 1.91103L14.5821 2.28405C16.0721 3.73466 17.0001 5.75603 17.0001 7.99518C17.0001 12.4102 13.4017 16 8.95905 16C4.51862 16 0.917969 12.4103 0.917969 7.99518C0.917969 5.75077 1.85825 3.73292 3.35035 2.28362L3.73393 1.91104L4.48291 2.67428L4.09933 3.04685C2.80171 4.30725 1.99011 6.05459 1.99011 7.99518C1.99011 11.8222 5.1118 14.9333 8.95905 14.9333C12.8083 14.9333 15.928 11.8223 15.928 7.99518C15.928 6.05573 15.1255 4.3055 13.8323 3.04642L13.4491 2.67341L14.199 1.91103Z" fill="#FF4D4D"/>
</svg>
