<svg width="16" height="16" viewBox="0 0 16 16" fill="none" xmlns="http://www.w3.org/2000/svg">
<path d="M10.98 3.03199V2.68126C10.98 2.283 10.6568 1.96029 10.259 1.96029H9.07575C9.17431 1.78217 9.23035 1.56152 9.23035 1.33738C9.22985 0.600394 8.63045 0 7.89397 0C7.15749 0 6.55859 0.600394 6.55859 1.33738C6.55859 1.56152 6.61463 1.78217 6.7132 1.96029H5.74256C5.3443 1.96029 5.02159 2.283 5.02159 2.68126V3.03199H3.41353C2.80963 3.03199 2.32031 3.52181 2.32031 4.12571V14.9058C2.32031 15.5097 2.80963 16 3.41353 16H12.5866C13.1904 16 13.6803 15.5102 13.6803 14.9058V4.12571C13.6803 3.52181 13.1904 3.03199 12.5866 3.03199H10.98ZM7.09845 1.33788C7.09845 0.89859 7.45518 0.540355 7.89347 0.540355C8.33276 0.540355 8.68949 0.89859 8.68949 1.33788C8.68949 1.58904 8.57242 1.80468 8.3893 1.96079H7.39815C7.21553 1.80418 7.09845 1.58904 7.09845 1.33788ZM12.5866 14.2554C12.5866 14.6266 12.2854 14.9278 11.9141 14.9278H4.08597C3.71473 14.9278 3.41353 14.6266 3.41353 14.2554V4.79815C3.41353 4.4264 3.71473 4.12571 4.08597 4.12571H5.02058C5.02058 4.4214 5.26024 4.66156 5.55594 4.66156H10.4436C10.7398 4.66156 10.979 4.4219 10.979 4.12571H11.9141C12.2849 4.12571 12.5866 4.42691 12.5866 4.79815V14.2554Z" fill="#0000CC"/>
<path d="M5.43059 7.5034C5.95533 7.5034 6.38072 7.07801 6.38072 6.55327C6.38072 6.02853 5.95533 5.60315 5.43059 5.60315C4.90585 5.60315 4.48047 6.02853 4.48047 6.55327C4.48047 7.07801 4.90585 7.5034 5.43059 7.5034Z" fill="#FF8B00"/>
<path d="M10.8352 6.02344H7.59504C7.29685 6.02344 7.05469 6.26109 7.05469 6.55929C7.05469 6.85748 7.29635 7.09514 7.59504 7.09514H10.8362C11.1344 7.09514 11.3755 6.85748 11.3755 6.55929C11.3755 6.26109 11.1339 6.02344 10.8352 6.02344Z" fill="#FF4D4D"/>
<path d="M5.43059 10.1987C5.95533 10.1987 6.38072 9.77332 6.38072 9.24859C6.38072 8.72385 5.95533 8.29846 5.43059 8.29846C4.90585 8.29846 4.48047 8.72385 4.48047 9.24859C4.48047 9.77332 4.90585 10.1987 5.43059 10.1987Z" fill="#FF8B00"/>
<path d="M10.8352 8.70117H7.59504C7.29685 8.70117 7.05469 8.95034 7.05469 9.24853C7.05469 9.54673 7.29635 9.79489 7.59504 9.79489H10.8362C11.1344 9.79489 11.3755 9.54673 11.3755 9.24853C11.3755 8.95034 11.1339 8.70117 10.8352 8.70117Z" fill="#FF8B00"/>
<path d="M5.43009 13.0791C5.95455 13.0791 6.37971 12.6539 6.37971 12.1294C6.37971 11.605 5.95455 11.1798 5.43009 11.1798C4.90563 11.1798 4.48047 11.605 4.48047 12.1294C4.48047 12.6539 4.90563 13.0791 5.43009 13.0791Z" fill="#FF8B00"/>
<path d="M10.8352 11.58H7.59504C7.29685 11.58 7.05469 11.8291 7.05469 12.1273C7.05469 12.4255 7.29635 12.6737 7.59504 12.6737H10.8362C11.1344 12.6737 11.3755 12.425 11.3755 12.1273C11.3755 11.8291 11.1339 11.58 10.8352 11.58Z" fill="#FF8B00"/>
</svg>
