<svg width="37" height="36" viewBox="0 0 37 36" fill="none" xmlns="http://www.w3.org/2000/svg">
<path d="M13.7 0C9.0612 0 5.3 3.75762 5.3 8.39531C5.3 13.033 9.0612 16.7906 13.7 16.7906C18.3388 16.7906 22.1 13.033 22.1 8.39531C22.1 3.75762 18.3388 0 13.7 0Z" fill="#000"/>
<path d="M8.9 21.5859C4.26108 21.5859 0.5 25.3452 0.5 29.9847V35.9781H26.9V29.9847C26.9 25.3452 23.1389 21.5859 18.5 21.5859H8.9Z" fill="#000"/>
<path d="M30.5 24H29.3V36H36.5V30C36.5 26.6863 33.8137 24 30.5 24Z" fill="#000"/>
<path d="M28.1 9.6C24.7863 9.6 22.1 12.2863 22.1 15.6C22.1 18.9137 24.7863 21.6 28.1 21.6C31.4137 21.6 34.1 18.9137 34.1 15.6C34.1 12.2863 31.4137 9.6 28.1 9.6Z" fill="#000"/>
</svg>
